<?xml version="1.0" standalone="no"?>
<!DOCTYPE svg PUBLIC "-//W3C//DTD SVG 1.1//EN" "http://www.w3.org/Graphics/SVG/1.1/DTD/svg11.dtd" >
<svg xmlns="http://www.w3.org/2000/svg">
<metadata>
Created by FontPrep 20130207 at Wed Dec 30 18:11:29 2015
 By Wilfred Denton
Created by Raph Levien using his own tools and FontPrep. Copyright 2006 Raph Levien. Released under the SIL Open Font License, http://scripts.sil.org/OFL.
</metadata>
<defs>
<font id="f9f2b17740dade420e325a1de68d5db8" horiz-adv-x='1024' >
  <font-face 
    font-family="Inconsolata"
    font-weight="500"
    font-stretch="normal"
    units-per-em="2048"
    panose-1="2 11 6 9 3 0 3 0 0 0"
    ascent="1679"
    descent="-369"
    x-height="936"
    cap-height="1276"
    bbox="0 -362.04 1042 1710"
    underline-thickness="102"
    underline-position="-205"
    unicode-range="U+0020-2423"
  />
<missing-glyph 
 />
    <glyph glyph-name=".notdef" 
 />
    <glyph glyph-name=".null" horiz-adv-x="0" 
 />
    <glyph glyph-name="nonmarkingreturn" horiz-adv-x="681" 
 />
    <glyph glyph-name="space" unicode=" " 
 />
    <glyph glyph-name="exclam" unicode="!" 
d="M494 1368q30 0 58 -22t37 -60q9 -37 9 -80t-3 -83t-8 -85t-7 -75l-37 -566h-103l-30 566q-2 70 -12 147q-9 76 -9 116t14 77q28 65 91 65zM612 97q0 -50 -36 -85t-86 -35t-86 35t-36 77t17 70q34 60 95 60q60 0 96 -36t36 -86z" />
    <glyph glyph-name="quotedbl" unicode="&#x22;" 
d="M367 1364q35 0 63 -31t29 -99q0 -68 -68 -255l-49 -135l-115 26l45 140q20 61 21 112l-14 129q0 57 26 85q27 28 62 28zM721 1364q35 0 63 -31t29 -99q0 -68 -70 -255l-49 -135l-112 26l45 140q18 61 18 112l-12 129q0 57 26 85q27 28 62 28z" />
    <glyph glyph-name="numbersign" unicode="#" 
d="M424 834l-41 -347l225 5l43 344zM354 1278l125 6l-43 -352l226 2l40 334l127 4l-41 -336l187 2l-12 -98l-187 -2l-43 -344l203 4l-10 -97l-203 -4l-45 -368l-125 -9l45 375l-227 -2l-43 -364l-121 -6l43 368l-199 -4l8 94l203 4l41 349l-223 -3l6 97l227 2z" />
    <glyph glyph-name="dollar" unicode="$" 
d="M297 930q0 -92 113 -158q28 -17 71 -33v355q-90 -10 -137 -58t-47 -106zM809 362q0 100 -102 156q-35 18 -107 41v-407q96 18 153 78q56 60 56 132zM162 913q0 111 89 195t230 102v123h131q2 -4 2 -9t-7 -14t-7 -20v-78q190 -20 305 -157l-88 -111q-10 2 -10 14l-2 17
q-2 4 -10 12q-70 84 -195 105v-396q92 -31 137 -49q205 -88 205 -276q0 -119 -89 -217t-253 -121v-129h-119v125q-221 14 -358 164l88 122q8 -6 8 -20t6 -23q102 -109 256 -125v451q-319 97 -319 315z" />
    <glyph glyph-name="percent" unicode="%" 
d="M758 406q-41 0 -74 -38t-33 -122t34 -124t75 -40t74 38q32 38 32 123t-33 124q-34 39 -75 39zM987 246q-1 -115 -67 -191q-66 -75 -160 -75t-162 76t-68 189t68 189t162 76q61 0 113 -34t83 -95t31 -135zM387 1032q-1 88 -33 124t-60 36t-44 -7q-66 -29 -68 -145
q-2 -166 118 -168q26 0 56 36t31 124zM287 1298q94 0 162 -76q67 -76 67 -192q0 -114 -66 -190t-161 -76q-63 0 -116 35q-116 79 -116 253q0 96 68 170q68 76 162 76zM801 1276h137l-713 -1276h-131z" />
    <glyph glyph-name="ampersand" unicode="&#x26;" 
d="M229 310q-1 -85 53 -142t124 -57q70 -1 132 35t95 71l31 35l-261 354q-82 -51 -128 -131t-46 -165zM328 1018q0 -98 125 -254q71 40 113 106t42 137t-42 115t-99 45t-98 -41t-41 -108zM393 -20q-137 0 -228 91t-91 219t70 238t188 174q-146 174 -146 304t82 206t200 76
t197 -78t79 -186t-61 -202q-60 -94 -161 -146l230 -322q63 74 92 166q2 8 2 17l-2 24q0 12 8 21l133 -93q-70 -125 -156 -237l144 -186l-121 -91l-113 181q-63 -80 -154 -128t-192 -48z" />
    <glyph glyph-name="quotesingle" unicode="'" 
d="M562 1364q34 0 62 -31t29 -99q0 -68 -67 -255l-51 -135l-113 26l45 140q20 61 20 112l-14 129q0 57 27 85q28 28 62 28z" />
    <glyph glyph-name="parenleft" unicode="(" 
d="M426 526q0 -230 119 -441q119 -210 325 -331l-65 -108q-244 126 -382 364t-138 518t139 506t379 330l61 -125q-8 -4 -14 -4h-10l-15 2q-6 0 -18 -6q-177 -107 -279 -291t-102 -414z" />
    <glyph glyph-name="parenright" unicode=")" 
d="M600 506q0 228 -118 424t-322 305l39 127q246 -110 397 -344t150 -507q0 -273 -152 -510t-408 -357l-39 123q209 111 331 311t122 428z" />
    <glyph glyph-name="asterisk" unicode="*" 
d="M436 1063h166q-2 -11 -6 -27t-6 -28l-31 -308l326 148l53 -125l-350 -107l258 -309l-113 -88l-221 340l-229 -342l-111 90l266 307l-354 109l53 133l332 -156z" />
    <glyph glyph-name="plus" unicode="+" 
d="M455 1071h129v-350h350v-125h-350v-383h-129v383h-363v125h363v350z" />
    <glyph glyph-name="comma" unicode="," 
d="M627 41q0 -164 -219 -385l-70 61q57 53 95 115t38 100q0 39 -52 74t-52 85t33 85q34 35 87 35t97 -47t43 -123z" />
    <glyph glyph-name="hyphen" unicode="-" 
d="M145 713h738v-138h-738v138z" />
    <glyph glyph-name="period" unicode="." 
d="M610 94q0 -49 -36 -83t-78 -34q-42 -1 -70 15q-60 34 -59 93q0 58 35 93q36 35 86 35t86 -35t36 -84z" />
    <glyph glyph-name="slash" unicode="/" 
d="M131 -27l641 1389l123 -64l-643 -1384z" />
    <glyph glyph-name="zero" unicode="0" 
d="M516 109q51 -1 95 27q178 111 178 471q0 134 -27 249l-451 -573q43 -84 99 -129t106 -45zM520 1159q-112 0 -198 -138t-86 -368q0 -131 28 -241l451 581q-83 166 -195 166zM514 1284q76 0 148 -44t130 -125t94 -211t36 -272q0 -378 -183 -555q-102 -100 -223 -100
q-162 1 -288 179t-126 473q0 147 36 273q68 239 227 336q73 46 149 46z" />
    <glyph glyph-name="one" unicode="1" 
d="M612 1278v-1280h-141v1102l-258 -76l-33 80l334 174h98z" />
    <glyph glyph-name="two" unicode="2" 
d="M516 1284q156 0 264 -104t107 -262q0 -158 -149 -317q-54 -58 -103 -102q-241 -221 -320 -374h535q12 0 24 11t25 7v-143h-749v90q132 260 333 440q177 159 219 234q43 75 43 164t-71 161q-72 71 -161 71t-158 -46q-69 -45 -82 -95q-3 -15 -9 -24l-104 82q55 95 151 151
t205 56z" />
    <glyph glyph-name="three" unicode="3" 
d="M842 943q0 -79 -52 -155t-139 -108q99 -35 159 -125t60 -205q0 -154 -108 -264t-300 -109q-190 0 -321 146l109 129q8 -8 12 -28t25 -42q21 -23 78 -49q57 -25 110 -24q111 1 185 77t73 186q0 110 -84 174t-217 64q-33 0 -63 -4v115q127 0 195 31t105 86q36 55 36 112
q0 118 -107 175q-51 28 -115 28q-129 0 -219 -98l-80 88q125 137 292 137t266 -95q100 -96 100 -242z" />
    <glyph glyph-name="four" unicode="4" 
d="M614 479v572l-374 -572h374zM762 1278v-799h164v-127h-164v-352h-150v354h-514v105l543 819h121z" />
    <glyph glyph-name="five" unicode="5" 
d="M504 711q-138 0 -240 -121l-90 37l43 649h647v-129h-526l-21 -367q100 49 209 49t195 -49t138 -146t52 -231q-1 -201 -115 -313t-286 -113q-115 -1 -215 51t-164 146l127 94q10 -6 11 -24t6 -28t30 -33q25 -25 82 -53t121 -28q110 0 184 81t74 225t-77 223
q-77 80 -185 80z" />
    <glyph glyph-name="six" unicode="6" 
d="M541 106q91 0 155 76t64 222t-68 220t-160 74q-93 0 -177 -82q-40 -39 -68 -90q-11 -176 63 -298t191 -122zM600 1163q-45 0 -79 -8t-79 -40q-46 -32 -78 -82t-58 -144t-27 -219q43 72 115 112t155 41q143 0 247 -113q103 -114 103 -304t-106 -308t-258 -118
q-86 0 -166 43t-136 124q-96 147 -96 410t56 416q37 109 103 181q124 136 289 136t283 -116l-100 -109q-10 5 -17 23t-13 22t-15 12q-10 8 -44 24t-79 17z" />
    <glyph glyph-name="seven" unicode="7" 
d="M162 1141v135h723v-80q-248 -558 -447 -1196h-162q200 597 431 1141h-545z" />
    <glyph glyph-name="eight" unicode="8" 
d="M507 1171q-44 -1 -89 -25q-98 -53 -96 -157q0 -122 145 -214q33 -22 55 -32l25 -10q104 57 150 152q24 47 24 104t-39 106q-57 76 -175 76zM758 331q0 93 -74 172t-199 118q-92 -39 -153 -116q-62 -77 -62 -169t72 -160t174 -68t172 66q70 64 70 157zM526 1292
q142 0 238 -88t96 -215q0 -92 -55 -175t-148 -132q111 -51 179 -146q68 -94 68 -198t-51 -185q-50 -81 -141 -127t-200 -46q-166 0 -278 99t-112 245t124 264q57 55 133 90q-88 45 -141 126t-54 173q0 131 100 223t242 92z" />
    <glyph glyph-name="nine" unicode="9" 
d="M493 588q160 0 252 155q16 186 -56 303q-73 116 -187 115q-92 0 -158 -78t-66 -212q0 -135 68 -209q66 -74 147 -74zM444 -20q-164 0 -282 116l100 109q9 -7 18 -25t15 -24q59 -47 145 -47t154 43q70 42 112 142t48 306q-45 -63 -115 -100t-150 -37q-143 1 -246 113
t-103 292t107 300q108 120 259 120q109 0 204 -70t140 -202q45 -133 45 -365q0 -448 -217 -597q-109 -74 -234 -74z" />
    <glyph glyph-name="colon" unicode=":" 
d="M610 94q0 -49 -36 -83t-78 -34q-42 -1 -70 15q-60 34 -59 93q0 58 35 93q36 35 86 35t86 -35t36 -84zM610 749q0 -48 -36 -83t-78 -35t-70 16t-43 43q-16 27 -16 59q0 33 16 59q35 58 95 58t96 -34t36 -83z" />
    <glyph glyph-name="semicolon" unicode=";" 
d="M610 749q0 -48 -36 -83t-78 -35t-70 16t-43 43q-16 27 -16 59q0 33 16 59q35 58 95 58t96 -34t36 -83zM627 41q0 -164 -219 -385l-70 61q57 53 95 115t38 100q0 39 -52 74t-52 85t33 85q34 35 87 35t97 -47t43 -123z" />
    <glyph glyph-name="less" unicode="&#x3c;" 
d="M938 1016l-711 -363l717 -401v-156l-872 510v99l866 456v-145z" />
    <glyph glyph-name="equal" unicode="=" 
d="M92 473h842v-125h-842v125zM92 897h842v-125h-842v125z" />
    <glyph glyph-name="greater" unicode="&#x3e;" 
d="M86 1016v145l868 -456v-99l-872 -510v156l715 401z" />
    <glyph glyph-name="question" unicode="?" 
d="M526 1362q166 0 264 -106t99 -255q0 -113 -53 -184q-29 -39 -46 -57q-18 -18 -58 -51t-46 -37q-56 -52 -72 -98t-16 -111v-84h-135v84q0 82 17 139t79 125q136 136 158 213q10 35 10 72q0 92 -61 154t-159 62t-196 -82q-45 -40 -75 -95l-105 98q66 101 172 157t223 56z
M535 209q51 0 85 -35t35 -75q0 -39 -16 -67q-33 -56 -94 -58q-61 -1 -96 34t-35 83t35 83t86 35z" />
    <glyph glyph-name="at" unicode="@" 
d="M829 807h-34q-158 0 -234 -51q-76 -50 -76 -130t47 -126q46 -46 104 -45q182 0 192 230q1 24 1 83v39zM63 658q0 152 46 281q81 234 274 319q83 38 185 38t196 -60t141 -164t47 -298v-416h-123v78q-80 -94 -204 -94q-72 0 -133 35q-134 77 -134 237q0 80 52 154t138 108
q87 34 245 33h30q0 115 -80 196t-194 81q-141 0 -254 -134t-113 -403q0 -321 196 -475q101 -78 229 -79t229 67l55 -101q-131 -84 -292 -84t-303 104q-233 171 -233 577z" />
    <glyph glyph-name="A" unicode="A" 
d="M668 483l-181 488l-163 -488h344zM31 -2l450 1300h17l491 -1298h-147l-142 373h-405l-123 -375h-141z" />
    <glyph glyph-name="B" unicode="B" 
d="M240 627v-502h243q109 0 169 28t97 86q35 58 35 129t-38 133t-106 94t-191 32h-209zM240 1155v-407h200q117 0 176 26t93 73q33 48 33 104t-34 106q-34 49 -94 73t-172 25h-202zM98 1276h363q159 0 243 -37t132 -112t49 -165q0 -90 -51 -166q-51 -77 -138 -112
q106 -37 173 -128q67 -92 67 -198t-56 -191t-152 -126t-269 -41h-361v1276z" />
    <glyph glyph-name="C" unicode="C" 
d="M815 982v19q0 10 -6 23q-41 68 -107 108t-139 39q-141 0 -240 -142t-99 -388t102 -392t249 -147q76 0 147 42t114 114l106 -70q-60 -98 -160 -153t-190 -55t-156 19q-145 42 -249 196q-103 154 -103 436q0 147 32 264q57 208 186 299q129 92 267 92q174 0 297 -119
q59 -57 95 -133l-138 -67q-8 5 -8 15z" />
    <glyph glyph-name="D" unicode="D" 
d="M246 1155v-1044h131q76 0 130 11t107 46q184 125 184 455t-159 460q-53 45 -109 59t-131 13h-153zM111 1276h297q98 0 166 -13t130 -53q124 -81 181 -232q57 -150 57 -314q0 -467 -283 -615q-100 -51 -276 -51h-272v1278z" />
    <glyph glyph-name="E" unicode="E" 
d="M121 1278h782v-127h-647v-420h535v-131h-535v-473h641v-127h-776v1278z" />
    <glyph glyph-name="F" unicode="F" 
d="M160 1278h735v-125h-592v-401h477v-125h-477v-627h-143v1278z" />
    <glyph glyph-name="G" unicode="G" 
d="M565 1163q-84 0 -161 -47q-189 -115 -189 -463q0 -297 123 -436q96 -111 230 -111t241 78v303h-231v125h364v-499q-180 -133 -375 -133q-152 0 -270 89q-225 165 -223 565q0 150 36 272q36 124 89 194t123 114q116 74 240 74t222 -57t154 -156l-100 -102q-12 8 -27 39
q-31 68 -97 110t-149 41z" />
    <glyph glyph-name="H" unicode="H" 
d="M111 1276h159q2 -4 2 -10t-6 -16t-6 -23v-498h500v547h155q6 -12 -3 -24q-9 -11 -9 -21v-1233h-145v610h-498v-608h-149v1276z" />
    <glyph glyph-name="I" unicode="I" 
d="M180 1276h633v-121h-252v-1038h264v-119h-659v121h252v1036h-238v121z" />
    <glyph glyph-name="J" unicode="J" 
d="M352 1276h584v-121h-197v-727q0 -191 -47 -277q-47 -85 -124 -129t-166 -44q-180 -1 -302 141l97 117q6 -6 7 -20t7 -20q5 -8 25 -26t68 -42t97 -24q96 0 150 80q43 61 46 157q1 28 1 85v729h-246v121z" />
    <glyph glyph-name="K" unicode="K" 
d="M86 1278h172q2 -12 -8 -26t-10 -27v-537l532 598q41 -10 107 -10h53l-483 -551l516 -727l-183 -6l-442 647l-100 -111v-528h-154v1278z" />
    <glyph glyph-name="L" unicode="L" 
d="M135 1276h168q2 -14 -8 -32t-10 -38v-1083h614v-125h-764v1278z" />
    <glyph glyph-name="M" unicode="M" 
d="M84 1276h113l315 -625l322 627h108v-1280h-135v965l-277 -514h-55l-258 507v-958h-133v1278z" />
    <glyph glyph-name="N" unicode="N" 
d="M102 0v1276h140l536 -946v948h152q2 -12 -6 -26t-9 -29v-1225h-112l-563 1006v-1004h-138z" />
    <glyph glyph-name="O" unicode="O" 
d="M821 616q-1 378 -161 490q-70 50 -136 49q-121 0 -216 -103q-48 -54 -78 -156t-30 -242q1 -395 210 -506q123 -65 247 15q66 43 115 147t49 306zM965 639q0 -386 -179 -551q-118 -110 -259 -109t-253 91q-215 173 -215 571q0 333 158 512q121 137 303 137q109 0 208 -61
t168 -197t69 -393z" />
    <glyph glyph-name="P" unicode="P" 
d="M524 690q96 0 150 25q53 29 83 81q29 52 29 116t-31 118q-32 55 -88 83t-157 28h-242l-2 -451h258zM121 1276h389q156 0 242 -44t134 -130t48 -186t-47 -183q-47 -84 -131 -127t-236 -43h-252v-563h-147v1276z" />
    <glyph glyph-name="Q" unicode="Q" 
d="M901 -297h-152q-289 0 -286 283q-122 17 -221 112q-183 176 -183 541q0 145 31 261q55 204 175 297t262 93t259 -107q61 -56 103 -136q76 -152 76 -410q0 -367 -158 -531q-91 -95 -219 -120q4 -68 35 -111t116 -43l166 10zM524 1159q-66 -1 -120 -27q-126 -63 -176 -236
q-30 -101 -30 -240t30 -250q52 -196 180 -264q88 -48 188 -18q37 11 80 45q154 121 151 447q0 378 -165 494q-72 49 -138 49z" />
    <glyph glyph-name="R" unicode="R" 
d="M260 1141v-451h248q96 0 149 27t82 79t29 116t-31 118q-31 55 -87 83t-158 28h-232zM115 1276h377q160 0 244 -43t132 -126q47 -83 47 -195t-71 -213q-72 -99 -189 -130l295 -569h-159l-283 563h-248v-563h-145v1276z" />
    <glyph glyph-name="S" unicode="S" 
d="M515 1165q-95 0 -157 -55t-63 -131q0 -115 131 -191q30 -18 186 -84t222 -126q98 -92 98 -226t-95 -249q-47 -56 -133 -90t-198 -33q-248 0 -400 163l84 148q10 -7 10 -21t7 -22q47 -60 127 -100t194 -40t188 70q75 70 75 170t-109 168q-37 23 -184 83t-213 108
q-137 100 -137 241q0 140 110 238q111 98 279 98q215 0 354 -160l-90 -123q-10 3 -11 17t-6 20q-87 127 -269 127z" />
    <glyph glyph-name="T" unicode="T" 
d="M63 1278h885v-129h-377v-1151h-145v1151h-363v129z" />
    <glyph glyph-name="U" unicode="U" 
d="M102 1276h162q2 -4 2 -11t-11 -23t-11 -32v-772q0 -124 32 -192t98 -108q68 -40 144 -40t142 39t100 109q33 70 33 198v832h137v-830q0 -86 -9 -148t-42 -122q-53 -96 -151 -147t-213 -51q-116 0 -213 50q-97 52 -150 148q-31 58 -40 118t-10 146v836z" />
    <glyph glyph-name="V" unicode="V" 
d="M51 1278h150l327 -981l310 979h141l-428 -1284h-66z" />
    <glyph glyph-name="W" unicode="W" 
d="M35 1276h133l137 -862l205 768h45l207 -772l117 866h120l-202 -1284h-56l-219 842l-223 -842h-59z" />
    <glyph glyph-name="X" unicode="X" 
d="M776 1278h144l-324 -625l362 -653h-161l-283 506l-274 -506h-156l348 651l-342 627h154l268 -485z" />
    <glyph glyph-name="Y" unicode="Y" 
d="M606 0h-155v504l-394 774h164l314 -621l282 619h152l-363 -772v-504z" />
    <glyph glyph-name="Z" unicode="Z" 
d="M127 1276h788l-2 -100l-630 -1051h602q14 0 31 7t32 5v-139h-846v100l643 1049h-618v129z" />
    <glyph glyph-name="bracketleft" unicode="[" 
d="M268 1372h586v-123h-455v-1315h457v-116h-588v1554z" />
    <glyph glyph-name="backslash" unicode="\" 
d="M895 -27l-121 -59l-643 1384l121 64z" />
    <glyph glyph-name="bracketright" unicode="]" 
d="M756 1372v-1554h-586v116h457v1315h-455v123h584z" />
    <glyph glyph-name="asciicircum" unicode="^" 
d="M190 752l314 524h45l276 -522l-108 -52l-199 359l-225 -359z" />
    <glyph glyph-name="underscore" unicode="_" 
d="M72 -39h882v-125h-882v125z" />
    <glyph glyph-name="grave" unicode="`" 
d="M441 955q-37 44 -105 231l-51 137l106 51l53 -135q24 -59 48 -87t57 -58q33 -29 47 -45q67 -93 4 -142q-37 -33 -80 -14q-42 18 -79 62z" />
    <glyph glyph-name="a" unicode="a" 
d="M756 438h-35q-11 0 -73 1q-168 3 -242 -16t-116 -67t-42 -110q0 -60 54 -108t139 -48t149 35t97 71q69 73 69 181v61zM891 580v-580h-139v102q-154 -125 -336 -125q-141 0 -229 78q-87 77 -87 173t54 170q108 146 419 152q47 1 146 1h31v35q0 111 -31 159q-55 91 -208 91
t-253 -105l-72 94q125 131 344 131t316 -155q45 -76 45 -221z" />
    <glyph glyph-name="b" unicode="b" 
d="M490 831q-52 -1 -109 -37t-83 -98t-26 -200t8 -192q21 -148 166 -187q32 -8 70 -8t86 18q182 67 182 322q0 94 -21 165q-55 178 -191 210q-30 8 -82 7zM123 1362h172q4 -10 -9 -20t-14 -25v-524q45 77 122 121t157 44q81 0 147 -30q148 -66 206 -237q32 -93 32 -214
t-34 -219t-90 -158q-116 -124 -267 -123q-84 0 -157 39t-120 107l-51 -123h-94v1362z" />
    <glyph glyph-name="c" unicode="c" 
d="M821 682q0 18 -5 29q-4 11 -32 37q-85 81 -213 81q-127 0 -216 -95t-89 -255t92 -264t234 -104t244 114l86 -100q-138 -147 -342 -147t-334 138q-130 140 -131 351q0 211 132 349t339 138q111 0 202 -46t148 -128l-105 -121q-10 5 -10 23z" />
    <glyph glyph-name="d" unicode="d" 
d="M508 840q-60 0 -101 -16q-174 -68 -172 -319q1 -251 124 -346q64 -50 140 -50q75 0 139 48q64 47 87 119t23 197t-21 201t-90 122q-69 44 -129 44zM92 475q0 129 36 226t95 151q117 108 262 109q96 0 170 -46q73 -42 105 -116v563h158q0 -12 -10 -28t-11 -29l2 -1219
q0 -51 10 -86h-147q-8 27 -8 70v80q-103 -170 -289 -170q-118 0 -210 75q-163 132 -163 420z" />
    <glyph glyph-name="e" unicode="e" 
d="M533 846q-99 0 -182 -64t-103 -221h514q12 115 -59 200t-170 85zM530 958q122 0 230 -75t141 -256q14 -88 6 -181h-665q11 -265 217 -331q49 -16 102 -17q147 0 242 105l82 -80q-121 -143 -328 -143t-332 126t-125 360q0 236 124 364t306 128z" />
    <glyph glyph-name="f" unicode="f" 
d="M473 952v-71h307v-117h-307v-764h-141v764h-203v117h203v92q0 157 50 237t135 122t185 42q180 0 287 -129l-67 -135q-13 0 -17 16q0 18 -4 25q-33 47 -87 77t-118 29q-131 0 -188 -102q-35 -61 -35 -203z" />
    <glyph glyph-name="g" unicode="g" 
d="M213 -94q0 -80 85 -114t210 -34t207 45t82 121q0 53 -43 82t-104 31q-60 2 -122 0t-198 12q-117 -63 -117 -143zM123 635q1 137 105 235t240 97q136 0 226 -90q113 94 260 84l19 -121q-27 4 -55 4q-88 0 -162 -45q47 -72 47 -158q1 -131 -99 -226t-239 -96q-61 0 -119 23
q-66 -55 -66 -103t56 -65q43 -10 97 -10q53 0 113 1t122 -1t126 -29t101 -82t37 -113q0 -110 -95 -196q-47 -43 -135 -70t-200 -26q-225 0 -325 65q-99 66 -99 156q0 111 153 207q-75 41 -75 129t106 176q-66 43 -102 111q-37 68 -37 143zM258 658q0 -130 102 -192
q47 -28 118 -28t131 60q61 60 61 132q1 133 -103 192q-47 28 -117 28t-132 -60q-60 -62 -60 -132z" />
    <glyph glyph-name="h" unicode="h" 
d="M143 0v1362h170v-6q0 -8 -10 -20t-10 -23v-543q55 84 138 136t169 52t153 -44t101 -120t33 -227v-567h-146v563q0 113 -16 150q-50 116 -160 116q-47 1 -95 -23q-177 -87 -177 -267v-539h-150z" />
    <glyph glyph-name="i" unicode="i" 
d="M521 1343q44 -1 75 -31t31 -74t-31 -75t-67 -31q-37 0 -61 15q-52 31 -52 83t30 83q31 30 75 30zM217 936h375v-817h219v-119h-606v119h239v698h-227v119z" />
    <glyph glyph-name="j" unicode="j" 
d="M683 1343q44 -1 75 -31q30 -30 30 -74t-30 -75t-75 -31q-44 0 -76 32q-32 30 -32 74t32 74t76 31zM258 936h498v-870q0 -150 -45 -238t-133 -136t-193 -48q-180 0 -287 131l97 127q6 -6 10 -20q14 -49 98 -91q84 -43 181 -1q124 51 122 247v778h-348v121z" />
    <glyph glyph-name="k" unicode="k" 
d="M135 1362h168q2 -12 -8 -26t-10 -27v-803l469 434q43 -10 108 -10h53l-393 -371l459 -561h-14l-176 -6l-383 477l-123 -115v-356h-150v1364z" />
    <glyph glyph-name="l" unicode="l" 
d="M174 1362h414v-1243h274v-119h-700v119h276v1124h-264v119z" />
    <glyph glyph-name="m" unicode="m" 
d="M78 0v936h135v-92q33 51 84 83q93 58 175 17t97 -123q36 93 145 127q32 10 64 10q98 0 148 -75q29 -44 33 -99q4 -54 4 -84v-702h-140v666q0 106 -12 135q-23 51 -78 51t-104 -84q-41 -66 -41 -148v-618h-137v651q0 92 -9 123q-22 72 -88 72t-112 -88q-29 -55 -29 -133
v-625h-135z" />
    <glyph glyph-name="n" unicode="n" 
d="M139 0v936h152v-166q53 84 136 136t169 52t153 -44t101 -120t35 -227v-567h-146v563q0 153 -51 207q-49 59 -121 59t-134 -42t-97 -87q-45 -63 -45 -161v-539h-152z" />
    <glyph glyph-name="o" unicode="o" 
d="M514 831q-113 0 -195 -97t-81 -261q0 -111 41 -197q83 -174 243 -174q111 0 192 94t81 268q0 173 -84 270t-197 97zM942 467q0 -227 -123 -359t-301 -132t-307 138t-129 349t131 352t307 141t299 -131t123 -358z" />
    <glyph glyph-name="p" unicode="p" 
d="M424 815q-95 -35 -127 -121q-25 -57 -25 -193q0 -202 27 -264q27 -63 85 -97t106 -34q129 0 199 63q69 63 87 136q42 169 -1 304t-128 185q-63 37 -122 37q-58 0 -101 -16zM123 936h149v-143q47 75 126 119t160 44q161 0 268 -113q54 -57 88 -151t34 -216t-35 -220
t-91 -158q-113 -123 -267 -123q-86 0 -160 39t-121 109v-465h-151v1278z" />
    <glyph glyph-name="q" unicode="q" 
d="M498 840q-106 0 -184 -86t-78 -264t79 -280q80 -101 189 -101q76 0 140 48q64 47 87 119t23 206t-26 206t-92 112t-138 40zM766 799v137h139v-1278h-147v492q-43 -78 -121 -124t-166 -46q-161 0 -273 138t-112 361t121 352t291 129t254 -137q14 -20 14 -24z" />
    <glyph glyph-name="r" unicode="r" 
d="M203 936h153l-4 -180q43 96 136 149t200 53q152 0 250 -102l-68 -141q-22 18 -34 47q-55 70 -156 69q-162 0 -262 -157q-55 -83 -64 -158q-2 -25 -2 -61v-457h-149v938z" />
    <glyph glyph-name="s" unicode="s" 
d="M328 712q0 -62 92 -106q37 -18 161 -54t183 -69q137 -78 137 -203q0 -124 -104 -212t-285 -88q-236 0 -395 147l84 147q10 -4 9 -19q-2 -31 92 -91t201 -61t177 41t70 112t-95 115q-39 18 -134 47t-117 38t-61 22q-37 13 -65 37q-28 25 -53 50q-49 49 -49 131
q0 109 100 186t261 76q215 0 348 -147l-86 -129q-10 2 -11 16q0 14 -4 21q-101 127 -270 127q-72 0 -129 -36t-57 -98z" />
    <glyph glyph-name="t" unicode="t" 
d="M817 936v-121h-307q-18 -181 -18 -341t8 -222t52 -98t103 -35q94 0 209 84l45 -117q-141 -104 -291 -104t-221 100q-47 66 -53 166q-2 32 -2 180t20 387h-219l2 121h224l16 250l162 26q3 -18 -4 -32q-6 -14 -8 -23l-25 -221h307z" />
    <glyph glyph-name="u" unicode="u" 
d="M276 936v-522q0 -137 35 -203q57 -112 178 -115q66 0 124 40q57 40 93 104t35 180v516h150v-852q0 -51 10 -84h-156q-4 29 -4 72l2 71q-45 -77 -123 -121t-167 -44q-90 0 -169 50t-118 137t-39 249l2 522h147z" />
    <glyph glyph-name="v" unicode="v" 
d="M258 936l-6 -40q0 -5 2 -11l270 -684l152 348q96 225 127 387h133q-39 -170 -141 -410l-228 -532h-114l-371 942h176z" />
    <glyph glyph-name="w" unicode="w" 
d="M33 936h149q4 -14 -3 -36t-3 -42l137 -674l160 664h90l199 -662q58 384 74 522t12 228h137q-61 -473 -156 -938h-139l-172 606l-164 -606h-133z" />
    <glyph glyph-name="x" unicode="x" 
d="M741 936h152l-303 -455l344 -481h-168l-258 365l-244 -365h-168l330 475l-324 461h162l244 -346z" />
    <glyph glyph-name="y" unicode="y" 
d="M268 891q0 -6 4 -17l275 -688l178 502q51 145 70 248h153q-33 -109 -92 -270l-293 -772q-37 -100 -80 -148q-90 -102 -223 -102t-215 80l78 131l16 -33q12 -25 45 -41t64 -17q121 0 196 170l29 70l-379 932h182q2 -10 -3 -24t-5 -21z" />
    <glyph glyph-name="z" unicode="z" 
d="M145 936h727v-100l-569 -711h555q14 0 32 7t32 5v-139h-820v100l580 709h-537v129z" />
    <glyph glyph-name="braceleft" unicode="{" 
d="M150 467h-41v115h38q95 0 143 51t48 168l-4 147q0 213 131 298q37 26 61 33t36 11t38 7q25 3 35 5q23 4 80 3h121v-117h-121q-99 0 -121 -9q-118 -47 -117 -208l4 -144q0 -225 -178 -303q174 -59 174 -317l-6 -172q0 -171 100 -221q9 -4 17 -8t19 -7q11 -2 22 -5t38 -3
l43 -2h124v-115h-115q-121 0 -149 8t-46 11q-18 4 -29 10t-27 14t-28 19q-115 88 -114 297l8 205q0 135 -48 182t-136 47z" />
    <glyph glyph-name="bar" unicode="|" 
d="M444 1335h138v-1644h-138v1644z" />
    <glyph glyph-name="braceright" unicode="}" 
d="M877 582h41v-115h-44q-88 0 -135 -47t-47 -182l6 -205q0 -285 -203 -340q-71 -19 -145 -19h-160v115h102q50 0 68 2t30 3q14 1 22 4t20 6t39 20q84 57 84 211l-6 172q0 258 172 317q-98 43 -146 140q-33 66 -32 163l6 144q0 160 -115 207q-36 14 -98 12t-76 -2h-72v117
h103q125 1 153 -9t59 -19q30 -9 87 -54q102 -92 102 -275l-6 -147q0 -117 53 -174q45 -45 138 -45z" />
    <glyph glyph-name="asciitilde" unicode="~" 
d="M354 950q120 0 202 -77q83 -77 151 -76q45 1 84 33t90 100l94 -78q-51 -76 -125 -132t-144 -56q-119 0 -198 82q-78 82 -152 81q-92 0 -170 -127l-102 68q49 80 124 131q76 51 146 51z" />
    <glyph glyph-name="nonbreakingspace" unicode="&#xa0;" 
 />
    <glyph glyph-name="exclamdown" unicode="&#xa1;" 
d="M480 -23q-97 -1 -97 167q0 48 8 131t10 106l37 567h103l30 -567q1 -69 11 -143t10 -118t-14 -77q-30 -66 -98 -66zM369 1246q0 50 35 86q36 36 78 36t70 -16q60 -34 60 -95t-36 -96t-86 -35t-86 35q-35 35 -35 85z" />
    <glyph glyph-name="cent" unicode="&#xa2;" 
d="M244 564q0 -118 56 -212q57 -94 151 -131l88 709q-181 -13 -257 -169q-38 -79 -38 -197zM569 68h-16l-31 -230l-116 15l28 231q-154 43 -245 171q-91 127 -91 319t126 328t331 147l29 229l137 -14q2 -12 -7 -28t-12 -30l-20 -168q160 -31 242 -157l-90 -117q-8 6 -8 26
t-9 27q-57 70 -151 98l-95 -716q156 0 269 114l73 -100q-133 -145 -344 -145z" />
    <glyph glyph-name="sterling" unicode="&#xa3;" 
d="M588 774v-117h-176q27 -119 26 -198q0 -154 -73 -275q27 4 76 4t154 -42t176 -42t138 58l54 -107q-106 -86 -213 -86q-62 0 -176 46t-204 46t-237 -77l-53 116q88 40 112 60q23 20 39 45q72 111 72 250q0 76 -31 202h-135v117h107q-14 74 -15 131q-1 167 105 269t256 102
t266 -105l-90 -112q-10 7 -16 22q-9 19 -23 29q-65 49 -148 49q-83 1 -148 -65t-64 -187q0 -55 16 -133h205z" />
    <glyph glyph-name="currency" unicode="&#xa4;" 
d="M513 913q-85 0 -145 -60t-60 -145q0 -86 60 -146t145 -60t145 60t60 146t-60 145q-60 60 -145 60zM513 1024q101 0 183 -57l115 112l74 -71l-115 -113q61 -84 61 -187t-59 -188l113 -112l-74 -72l-113 113q-82 -59 -185 -59t-187 61l-113 -115l-74 72l115 116
q-57 82 -57 184t59 183l-117 117l74 71l115 -114q84 59 185 59z" />
    <glyph glyph-name="yen" unicode="&#xa5;" 
d="M598 561h274v-117h-274v-129h274v-114h-274v-201h-139v201h-287v114h287v129h-287v117h287v43l-385 674h159l297 -535l273 533h151l-356 -672v-43z" />
    <glyph glyph-name="brokenbar" unicode="&#xa6;" 
d="M582 -309h-138v710h138v-710zM444 1335h138v-731h-138v731z" />
    <glyph glyph-name="section" unicode="&#xa7;" 
d="M311 688q0 -96 111 -151q43 -19 109 -39q67 -19 98 -31q74 39 73 123q0 102 -118 162q-28 14 -92 34t-89 31q-41 -14 -67 -49t-25 -80zM342 1098q0 -96 109 -154q29 -14 103 -41t114 -45q188 -90 188 -233q0 -61 -42 -115t-109 -82q131 -90 131 -226t-98 -225
q-98 -88 -251 -88q-102 0 -196 45t-158 129l107 125q13 -3 15 -27q3 -24 45 -63q79 -73 179 -73t156 47q55 46 55 124t-94 136q-41 22 -145 54t-158 63q-131 78 -131 198q0 92 81 158q38 31 87 49q-137 84 -137 231q0 119 96 205t242 86t256 -106q34 -33 59 -76l-117 -102
q-14 14 -14 43q-23 62 -95 99q-42 22 -107 22t-118 -47q-53 -46 -53 -111z" />
    <glyph glyph-name="dieresis" unicode="&#xa8;" 
d="M771 1331q30 -31 30 -73t-30 -73q-30 -30 -73 -30q-42 0 -72 30q-30 31 -30 73t30 73t72 31t73 -31zM436 1257q0 -29 -13 -53q-27 -50 -89 -49q-61 0 -90 50q-14 23 -14 59t30 67q31 31 66 31q36 0 60 -14t37 -38t13 -53z" />
    <glyph glyph-name="copyright" unicode="&#xa9;" 
d="M526 999q-110 0 -202 -57q-92 -56 -148 -158t-55 -222q0 -120 55 -220q54 -100 148 -158t202 -57q166 0 286 127t120 309t-119 309t-287 127zM523 39q-204 1 -349 153t-145 370t145 371t350 153t350 -154q146 -152 146 -370t-146 -370t-351 -153zM406 421q56 -65 130 -65
q111 0 160 93l90 -60q-42 -67 -110 -103t-141 -36q-125 0 -212 93t-87 222t88 216t198 87t180 -53t91 -137l-107 -39q-8 11 -8 41q-28 84 -154 86q-62 0 -117 -49q-57 -49 -57 -140t56 -156z" />
    <glyph glyph-name="ordfeminine" unicode="&#xaa;" 
d="M156 422h714v-111h-714v111zM672 868h-33q-143 0 -191 -8t-78 -42t-30 -75t36 -73t108 -33q72 0 143 65q29 27 37 56t8 73v37zM666 999q0 166 -152 166q-127 0 -192 -90l-70 84q100 115 274 115q186 0 250 -138q22 -46 21 -143v-446h-129v67q-94 -88 -208 -88t-182 64
q-69 64 -69 151q0 53 31 105q49 82 155 109q42 12 67 14q24 2 35 3t37 1l68 2h64v24z" />
    <glyph glyph-name="guillemotleft" unicode="&#xab;" 
d="M137 518l312 301l79 -84l-247 -241l262 -287l-82 -82l-324 346v47zM510 518l309 301l80 -84l-248 -241l262 -287l-82 -82l-321 346v47z" />
    <glyph glyph-name="logicalnot" unicode="&#xac;" 
d="M186 711h662v-389h-131v260h-531v129z" />
    <glyph glyph-name="softhyphen" unicode="&#xad;" 
d="M145 713h738v-138h-738v138z" />
    <glyph glyph-name="registered" unicode="&#xae;" 
d="M664 696q0 90 -152 90h-100v-180h106q146 0 146 90zM317 272v598h193q94 0 135 -17q109 -45 113 -157q0 -72 -58 -124q-27 -24 -61 -33l131 -256l-96 -15l-127 256h-135v-252h-95zM526 999q-110 0 -202 -57q-92 -56 -148 -158t-55 -222q0 -120 55 -220q54 -100 148 -158
t202 -57q166 0 286 127t120 309t-119 309t-287 127zM523 39q-204 1 -349 153t-145 370t145 371t350 153t350 -154q146 -152 146 -370t-146 -370t-351 -153z" />
    <glyph glyph-name="macron" unicode="&#xaf;" 
d="M252 1272h520v-115h-520v115z" />
    <glyph glyph-name="degree" unicode="&#xb0;" 
d="M526 1200q-63 0 -108 -48t-45 -117t45 -117t97 -48q99 -1 142 82q21 40 21 96t-44 104q-45 48 -108 48zM801 1033q0 -115 -81 -195t-196 -80q-116 0 -196 81t-80 195t81 194q81 81 195 81t196 -81q81 -81 81 -195z" />
    <glyph glyph-name="plusminus" unicode="&#xb1;" 
d="M455 1178h129v-351h350v-125h-350v-385h-129v385h-363v125h363v351zM94 164h842v-129h-842v129z" />
    <glyph glyph-name="uni00B2" unicode="&#xb2;" 
d="M510 1305q140 0 216 -67q75 -67 76 -166t-95 -187q-31 -27 -132 -99t-178 -157h373q12 0 24 11t25 7v-129h-571v90q71 97 128 147q132 115 197 160q105 86 105 159t-71 108q-36 18 -87 18t-99 -24q-47 -24 -65 -48q-18 -22 -23 -35t-9 -22l-97 64q47 80 127 125t156 45z
" />
    <glyph glyph-name="uni00B3" unicode="&#xb3;" 
d="M528 1307q113 0 191 -66t78 -156q0 -55 -33 -99t-84 -60q66 -10 108 -60t43 -116q0 -98 -93 -167t-216 -69q-176 0 -293 133l97 107q8 -10 13 -30t15 -28q68 -68 156 -68t141 40q53 39 53 83q1 123 -180 123q-31 0 -61 -4v105q20 -2 41 -2q92 0 131 31q39 32 39 76
t-43 81t-109 37q-115 0 -192 -94l-74 76q108 127 272 127z" />
    <glyph glyph-name="acute" unicode="&#xb4;" 
d="M598 1432l129 -86l-207 -277l-102 61z" />
    <glyph glyph-name="micro" unicode="&#xb5;" 
d="M762 238q0 -142 82 -142q42 0 73 40t39 61l56 -105q-76 -113 -181 -112q-67 0 -113 46t-54 111q-37 -73 -105 -115q-68 -43 -145 -44q-78 -1 -141 38q-62 39 -95 107q0 -231 -2 -465h-127q2 113 22 367q19 254 19 389v522h135v-555q-1 -117 23 -166q61 -127 174 -127
q55 0 105 36t77 97t27 172v543h131v-698z" />
    <glyph glyph-name="paragraph" unicode="&#xb6;" 
d="M893 1362v-1501h-119v1384h-156v-1384h-120v798q-156 9 -261 113t-106 244q0 96 55 178q54 82 154 125t297 43h256z" />
    <glyph glyph-name="periodcentered" unicode="&#xb7;" 
d="M610 678q0 -49 -36 -83t-78 -34q-78 0 -113 57q-16 27 -16 59q0 31 16 59q33 56 94 58q61 1 97 -33t36 -83z" />
    <glyph glyph-name="cedilla" unicode="&#xb8;" 
d="M573 -174h-61l23 174h90l-13 -96l35 -2q139 -11 139 -113q0 -59 -58 -105t-178 -46t-228 75l51 86q90 -73 192 -73t105 51q0 21 -23 35t-74 14z" />
    <glyph glyph-name="uni00B9" unicode="&#xb9;" 
d="M612 1296v-778h-131v615l-198 -52l-33 64l272 151h90z" />
    <glyph glyph-name="ordmasculine" unicode="&#xba;" 
d="M156 422h714v-111h-714v111zM319 897q-1 -123 55 -189t132 -65q102 0 156 109q28 60 28 164t-54 174t-130 70t-132 -70t-55 -193zM197 890q0 168 93 276t220 108t215 -95t88 -275t-93 -279q-93 -101 -218 -101t-215 100t-90 266z" />
    <glyph glyph-name="guillemotright" unicode="&#xbb;" 
d="M913 518v-47l-323 -346l-80 82l260 287l-248 241l80 84zM543 518v-47l-324 -346l-82 82l262 287l-247 241l79 84z" />
    <glyph glyph-name="onequarter" unicode="&#xbc;" 
d="M299 1386v-620h-104v491l-158 -40l-27 51l219 118h70zM782 92v244l-192 -244h192zM874 496v-404h103v-76h-103v-159h-94v159h-297v60l328 420h63zM156 -33l641 1395l98 -55l-643 -1393z" />
    <glyph glyph-name="onehalf" unicode="&#xbd;" 
d="M299 1386v-620h-104v491l-158 -40l-27 51l219 118h70zM773 481q67 1 119 -25q107 -53 105 -159q0 -82 -75 -152q-18 -17 -106 -81t-142 -123h299q8 0 18 8t21 6v-105h-459v72q82 112 215 211q43 33 47 35q84 70 84 129t-57 86q-29 14 -66 14q-92 0 -145 -69
q-6 -10 -9 -19q-3 -10 -8 -16l-75 51q37 63 101 100t133 37zM156 -33l641 1395l98 -55l-643 -1393z" />
    <glyph glyph-name="threequarters" unicode="&#xbe;" 
d="M782 92v244l-192 -244h192zM874 496v-404h103v-76h-103v-159h-94v159h-297v60l328 420h63zM262 1401q90 0 152 -52q62 -53 61 -111q0 -111 -92 -142q53 -8 87 -48t34 -92q0 -80 -74 -135t-174 -55q-139 0 -233 106l77 86q5 -7 9 -21t14 -26q53 -53 123 -53t114 32
q43 32 43 66q0 99 -145 99q-25 0 -49 -2v82q16 -2 50 -2t66 14q54 24 54 66q0 43 -35 73t-88 29q-92 0 -152 -78l-59 61q86 103 217 103zM166 -33l641 1395l98 -55l-643 -1393z" />
    <glyph glyph-name="questiondown" unicode="&#xbf;" 
d="M137 310q0 155 77 240q32 37 75 72q43 36 51 44q57 51 74 96q16 45 16 110v86h133v-86q0 -82 -17 -142t-117 -160q-99 -99 -120 -173q-10 -35 -10 -73q0 -90 62 -154q61 -64 147 -64t161 48t124 131l104 -99q-66 -100 -172 -156t-221 -56t-199 50q-84 52 -126 133
t-42 153zM371 1245q0 49 36 83t86 34t86 -34q35 -34 35 -83t-36 -83t-85 -34q-50 0 -86 34t-36 83z" />
    <glyph glyph-name="Agrave" unicode="&#xc0;" 
d="M668 483l-181 488l-163 -488h344zM31 -2l450 1300h17l491 -1298h-147l-142 373h-405l-123 -375h-141zM371 1620l313 -182l-47 -86l-346 125z" />
    <glyph glyph-name="Aacute" unicode="&#xc1;" 
d="M668 483l-181 488l-163 -488h344zM31 -2l450 1300h17l491 -1298h-147l-142 373h-405l-123 -375h-141zM631 1620l82 -143l-346 -125l-50 86z" />
    <glyph glyph-name="Acircumflex" unicode="&#xc2;" 
d="M668 483l-181 488l-163 -488h344zM31 -2l450 1300h17l491 -1298h-147l-142 373h-405l-123 -375h-141zM209 1417l268 203h45l252 -199l-67 -78l-211 146l-230 -141z" />
    <glyph glyph-name="Atilde" unicode="&#xc3;" 
d="M668 483l-181 488l-163 -488h344zM31 -2l450 1300h17l491 -1298h-147l-142 373h-405l-123 -375h-141zM408 1642q80 0 153 -77t110 -77t61 28q24 27 39 49t22 32l77 -81q-61 -74 -106 -110t-91 -36q-78 0 -149 78t-115 78q-45 0 -71 -28t-70 -99l-92 65q113 178 232 178z
" />
    <glyph glyph-name="Adieresis" unicode="&#xc4;" 
d="M668 483l-181 488l-163 -488h344zM31 -2l450 1300h17l491 -1298h-147l-142 373h-405l-123 -375h-141zM778 1511q0 -43 -30 -73t-73 -29q-42 0 -72 30q-30 31 -30 73t30 73t72 31q43 0 73 -31t30 -74zM414 1504q0 -36 -31 -66t-66 -29q-35 0 -59 13q-50 27 -51 79
q0 53 31 84q32 31 66 31t57 -14q53 -31 53 -98z" />
    <glyph glyph-name="Aring" unicode="&#xc5;" 
d="M303 1450q0 72 55 125t120 53q122 0 175 -90q25 -40 25 -100t-48 -112t-122 -58l481 -1268h-147l-142 373h-405l-123 -375h-141l440 1270q-72 8 -120 59t-48 123zM668 483l-181 488l-163 -488h344zM408 1449q0 -40 26 -67q26 -26 60 -26q36 0 60 26t24 67q0 40 -25 67
q-25 26 -59 26t-61 -26q-25 -27 -25 -67z" />
    <glyph glyph-name="AE" unicode="&#xc6;" 
d="M516 1151h-22l-215 -686h237v686zM991 1278v-127h-354l2 -420h299v-131h-297l4 -473h342v-127h-471v346h-266l-111 -346h-131l402 1278h581z" />
    <glyph glyph-name="Ccedilla" unicode="&#xc7;" 
d="M573 -174h-61l20 154q-166 16 -300 156q-69 73 -108 200q-40 126 -40 284q0 419 228 582q120 84 257 84q174 0 297 -119q59 -57 95 -133l-138 -67q-8 5 -8 15v19q0 10 -6 23q-41 68 -107 108t-139 39q-141 0 -240 -142t-99 -388t102 -392t249 -147q76 0 147 42t114 114
l106 -70q-53 -86 -137 -140t-182 -66l-11 -78l35 -2q139 -11 139 -113q0 -59 -58 -105t-178 -46t-228 75l51 86q90 -73 192 -73t105 51q0 21 -23 35t-74 14z" />
    <glyph glyph-name="Egrave" unicode="&#xc8;" 
d="M121 1278h782v-127h-647v-420h535v-131h-535v-473h641v-127h-776v1278zM371 1620l313 -182l-47 -86l-346 125z" />
    <glyph glyph-name="Eacute" unicode="&#xc9;" 
d="M121 1278h782v-127h-647v-420h535v-131h-535v-473h641v-127h-776v1278zM666 1620l82 -143l-347 -125l-47 86z" />
    <glyph glyph-name="Ecircumflex" unicode="&#xca;" 
d="M121 1278h782v-127h-647v-420h535v-131h-535v-473h641v-127h-776v1278zM225 1417l271 203h43l254 -199l-68 -78l-213 146l-227 -141z" />
    <glyph glyph-name="Edieresis" unicode="&#xcb;" 
d="M121 1278h782v-127h-647v-420h535v-131h-535v-473h641v-127h-776v1278zM793 1511q0 -43 -31 -73t-73 -29q-42 0 -72 30q-29 31 -29 73t29 73q30 31 72 31t73 -31t31 -74zM428 1504q0 -36 -31 -66t-65 -29q-34 0 -60 13q-51 27 -51 79q0 53 30 84t66 31t59 -14
q52 -30 52 -98z" />
    <glyph glyph-name="Igrave" unicode="&#xcc;" 
d="M180 1276h633v-121h-252v-1038h264v-119h-659v121h252v1036h-238v121zM371 1620l313 -182l-47 -86l-346 125z" />
    <glyph glyph-name="Iacute" unicode="&#xcd;" 
d="M180 1276h633v-121h-252v-1038h264v-119h-659v121h252v1036h-238v121zM666 1620l82 -143l-347 -125l-47 86z" />
    <glyph glyph-name="Icircumflex" unicode="&#xce;" 
d="M180 1276h633v-121h-252v-1038h264v-119h-659v121h252v1036h-238v121zM207 1417l268 203h45l252 -199l-67 -78l-211 146l-230 -141z" />
    <glyph glyph-name="Idieresis" unicode="&#xcf;" 
d="M180 1276h633v-121h-252v-1038h264v-119h-659v121h252v1036h-238v121zM784 1511q0 -43 -30 -73t-72 -29q-43 0 -73 30q-29 31 -29 73t29 73q30 31 73 31q42 0 72 -31t30 -74zM420 1504q0 -36 -30 -66t-66 -29q-36 0 -60 13q-52 28 -51 80q0 52 31 83q30 31 66 31t60 -14
t37 -38t13 -60z" />
    <glyph glyph-name="Eth" unicode="&#xd0;" 
d="M293 616v-499h123q135 0 219 57t133 178t49 275q0 258 -108 405q-39 55 -93 85t-90 34q-35 4 -88 4h-145v-420h215v-119h-215zM162 1276h284q146 0 223 -36q34 -15 66 -40q111 -82 165 -232t54 -342t-78 -357t-223 -232q-84 -39 -231 -39h-260v618h-101v119h101v541z" />
    <glyph glyph-name="Ntilde" unicode="&#xd1;" 
d="M102 0v1276h140l536 -946v948h152q2 -12 -6 -26t-9 -29v-1225h-112l-563 1006v-1004h-138zM418 1642q80 0 152 -77t111 -77q38 0 64 34q10 12 17 20q6 8 19 26t22 29l76 -81q-61 -74 -105 -110t-91 -36q-79 0 -149 78t-114 78q-45 0 -72 -28t-72 -99l-90 65
q111 178 232 178z" />
    <glyph glyph-name="Ograve" unicode="&#xd2;" 
d="M821 616q-1 378 -161 490q-70 50 -136 49q-121 0 -216 -103q-48 -54 -78 -156t-30 -242q1 -395 210 -506q123 -65 247 15q66 43 115 147t49 306zM965 639q0 -386 -179 -551q-118 -110 -259 -109t-253 91q-215 173 -215 571q0 333 158 512q121 137 303 137q109 0 208 -61
t168 -197t69 -393zM371 1620l313 -182l-47 -86l-346 125z" />
    <glyph glyph-name="Oacute" unicode="&#xd3;" 
d="M821 616q-1 378 -161 490q-70 50 -136 49q-121 0 -216 -103q-48 -54 -78 -156t-30 -242q1 -395 210 -506q123 -65 247 15q66 43 115 147t49 306zM965 639q0 -386 -179 -551q-118 -110 -259 -109t-253 91q-215 173 -215 571q0 333 158 512q121 137 303 137q109 0 208 -61
t168 -197t69 -393zM666 1620l82 -143l-347 -125l-47 86z" />
    <glyph glyph-name="Ocircumflex" unicode="&#xd4;" 
d="M821 616q-1 378 -161 490q-70 50 -136 49q-121 0 -216 -103q-48 -54 -78 -156t-30 -242q1 -395 210 -506q123 -65 247 15q66 43 115 147t49 306zM965 639q0 -386 -179 -551q-118 -110 -259 -109t-253 91q-215 173 -215 571q0 333 158 512q121 137 303 137q109 0 208 -61
t168 -197t69 -393zM231 1417l269 203h45l252 -199l-68 -78l-211 146l-227 -141z" />
    <glyph glyph-name="Otilde" unicode="&#xd5;" 
d="M821 616q-1 378 -161 490q-70 50 -136 49q-121 0 -216 -103q-48 -54 -78 -156t-30 -242q1 -395 210 -506q123 -65 247 15q66 43 115 147t49 306zM965 639q0 -386 -179 -551q-118 -110 -259 -109t-253 91q-215 173 -215 571q0 333 158 512q121 137 303 137q109 0 208 -61
t168 -197t69 -393zM418 1642q80 0 152 -77t111 -77q38 0 64 34q10 12 17 20q6 8 19 26t22 29l76 -81q-61 -74 -105 -110t-91 -36q-79 0 -149 78t-114 78q-45 0 -72 -28t-72 -99l-90 65q111 178 232 178z" />
    <glyph glyph-name="Odieresis" unicode="&#xd6;" 
d="M821 616q-1 378 -161 490q-70 50 -136 49q-121 0 -216 -103q-48 -54 -78 -156t-30 -242q1 -395 210 -506q123 -65 247 15q66 43 115 147t49 306zM965 639q0 -386 -179 -551q-118 -110 -259 -109t-253 91q-215 173 -215 571q0 333 158 512q121 137 303 137q109 0 208 -61
t168 -197t69 -393zM793 1511q0 -43 -31 -73t-73 -29q-42 0 -72 30q-29 31 -29 73t29 73q30 31 72 31t73 -31t31 -74zM428 1504q0 -36 -31 -66t-65 -29q-34 0 -60 13q-51 27 -51 79q0 53 30 84t66 31t59 -14q52 -30 52 -98z" />
    <glyph glyph-name="multiply" unicode="&#xd7;" 
d="M782 1030l99 -90l-267 -274l260 -275l-94 -94l-260 272l-256 -264l-90 90l258 269l-258 272l96 94l254 -268z" />
    <glyph glyph-name="Oslash" unicode="&#xd8;" 
d="M772 310q49 104 49 321t-55 336l-416 -779q76 -68 170 -67q164 1 252 189zM965 635q0 -382 -179 -547q-118 -110 -256 -109q-139 1 -247 82l-103 -190l-106 55l121 226q-135 176 -135 499t157 502q121 137 303 137q129 0 236 -82l94 178l111 -59l-115 -211
q119 -160 119 -481zM508 1155q-104 0 -200 -103q-48 -54 -78 -156t-29 -237q0 -225 69 -362l418 784q-76 74 -180 74z" />
    <glyph glyph-name="Ugrave" unicode="&#xd9;" 
d="M102 1276h162q2 -4 2 -11t-11 -23t-11 -32v-772q0 -124 32 -192t98 -108q68 -40 144 -40t142 39t100 109q33 70 33 198v832h137v-830q0 -86 -9 -148t-42 -122q-53 -96 -151 -147t-213 -51q-116 0 -213 50q-97 52 -150 148q-31 58 -40 118t-10 146v836zM371 1620l313 -182
l-47 -86l-346 125z" />
    <glyph glyph-name="Uacute" unicode="&#xda;" 
d="M102 1276h162q2 -4 2 -11t-11 -23t-11 -32v-772q0 -124 32 -192t98 -108q68 -40 144 -40t142 39t100 109q33 70 33 198v832h137v-830q0 -86 -9 -148t-42 -122q-53 -96 -151 -147t-213 -51q-116 0 -213 50q-97 52 -150 148q-31 58 -40 118t-10 146v836zM666 1620l82 -143
l-347 -125l-47 86z" />
    <glyph glyph-name="Ucircumflex" unicode="&#xdb;" 
d="M102 1276h162q2 -4 2 -11t-11 -23t-11 -32v-772q0 -124 32 -192t98 -108q68 -40 144 -40t142 39t100 109q33 70 33 198v832h137v-830q0 -86 -9 -148t-42 -122q-53 -96 -151 -147t-213 -51q-116 0 -213 50q-97 52 -150 148q-31 58 -40 118t-10 146v836zM231 1417l269 203
h45l252 -199l-68 -78l-211 146l-227 -141z" />
    <glyph glyph-name="Udieresis" unicode="&#xdc;" 
d="M102 1276h162q2 -4 2 -11t-11 -23t-11 -32v-772q0 -124 32 -192t98 -108q68 -40 144 -40t142 39t100 109q33 70 33 198v832h137v-830q0 -86 -9 -148t-42 -122q-53 -96 -151 -147t-213 -51q-116 0 -213 50q-97 52 -150 148q-31 58 -40 118t-10 146v836zM809 1511
q0 -43 -30 -73q-29 -30 -71 -29q-42 0 -73 30q-31 31 -31 73t31 73t73 31t72 -31t29 -74zM444 1511q0 -43 -30 -73t-72 -29q-43 0 -74 30q-30 31 -30 73t30 73q31 31 74 31q42 0 72 -31t30 -74z" />
    <glyph glyph-name="Yacute" unicode="&#xdd;" 
d="M606 0h-155v504l-394 774h164l314 -621l282 619h152l-363 -772v-504zM666 1620l82 -143l-347 -125l-47 86z" />
    <glyph glyph-name="Thorn" unicode="&#xde;" 
d="M264 901v-452h260q96 1 150 27t83 79t29 117t-31 119q-32 55 -88 83t-157 27h-246zM121 1276h160q2 -4 2 -10q1 -6 -9 -20t-10 -27v-183h246q156 0 242 -45t134 -130t48 -184t-47 -183t-131 -127t-236 -43h-256v-324h-143v1276z" />
    <glyph glyph-name="germandbls" unicode="&#xdf;" 
d="M113 0v866q0 184 45 286t135 160t196 58q154 0 263 -108t108 -252q0 -88 -43 -162t-119 -113q115 -35 184 -136t68 -228q0 -168 -108 -280t-267 -111q-117 0 -213 63l72 115q62 -49 132 -49q146 0 216 129q33 59 33 135q0 75 -38 143q-39 68 -101 107t-176 39h-62v116h60
q126 0 187 102q36 60 36 122q0 113 -66 181t-169 68t-173 -102q-61 -82 -61 -279v-870h-139z" />
    <glyph glyph-name="agrave" unicode="&#xe0;" 
d="M756 438h-35q-11 0 -73 1q-168 3 -242 -16t-116 -67t-42 -110q0 -60 54 -108t139 -48t149 35t97 71q69 73 69 181v61zM891 580v-580h-139v102q-154 -125 -336 -125q-141 0 -229 78q-87 77 -87 173t54 170q108 146 419 152q47 1 146 1h31v35q0 111 -31 159q-55 91 -208 91
t-253 -105l-72 94q125 131 344 131t316 -155q45 -76 45 -221zM498 1432l180 -302l-103 -61l-206 277z" />
    <glyph glyph-name="aacute" unicode="&#xe1;" 
d="M756 438h-35q-11 0 -73 1q-168 3 -242 -16t-116 -67t-42 -110q0 -60 54 -108t139 -48t149 35t97 71q69 73 69 181v61zM891 580v-580h-139v102q-154 -125 -336 -125q-141 0 -229 78q-87 77 -87 173t54 170q108 146 419 152q47 1 146 1h31v35q0 111 -31 159q-55 91 -208 91
t-253 -105l-72 94q125 131 344 131t316 -155q45 -76 45 -221zM598 1432l129 -86l-207 -277l-102 61z" />
    <glyph glyph-name="acircumflex" unicode="&#xe2;" 
d="M756 438h-35q-11 0 -73 1q-168 3 -242 -16t-116 -67t-42 -110q0 -60 54 -108t139 -48t149 35t97 71q69 73 69 181v61zM891 580v-580h-139v102q-154 -125 -336 -125q-141 0 -229 78q-87 77 -87 173t54 170q108 146 419 152q47 1 146 1h31v35q0 111 -31 159q-55 91 -208 91
t-253 -105l-72 94q125 131 344 131t316 -155q45 -76 45 -221zM289 1116l227 287h45l225 -289l-96 -72l-158 211l-165 -209z" />
    <glyph glyph-name="atilde" unicode="&#xe3;" 
d="M756 438h-35q-11 0 -73 1q-168 3 -242 -16t-116 -67t-42 -110q0 -60 54 -108t139 -48t149 35t97 71q69 73 69 181v61zM891 580v-580h-139v102q-154 -125 -336 -125q-141 0 -229 78q-87 77 -87 173t54 170q108 146 419 152q47 1 146 1h31v35q0 111 -31 159q-55 91 -208 91
t-253 -105l-72 94q125 131 344 131t316 -155q45 -76 45 -221zM436 1384q80 0 154 -77t112 -77q39 0 72 45q6 7 24 32q17 25 23 32l76 -82q-59 -73 -104 -109t-91 -36q-80 0 -150 78t-114 78q-46 0 -72 -28t-69 -99l-92 65q113 178 231 178z" />
    <glyph glyph-name="adieresis" unicode="&#xe4;" 
d="M756 438h-35q-11 0 -73 1q-168 3 -242 -16t-116 -67t-42 -110q0 -60 54 -108t139 -48t149 35t97 71q69 73 69 181v61zM891 580v-580h-139v102q-154 -125 -336 -125q-141 0 -229 78q-87 77 -87 173t54 170q108 146 419 152q47 1 146 1h31v35q0 111 -31 159q-55 91 -208 91
t-253 -105l-72 94q125 131 344 131t316 -155q45 -76 45 -221zM725 1362q43 0 73 -31t29 -63q0 -78 -62 -105q-19 -8 -51 -8t-62 30q-30 31 -30 73t30 73t73 31zM463 1257q0 -29 -13 -53q-27 -50 -80 -49q-54 0 -84 30q-30 31 -30 73t31 73t65 31t60 -14q25 -14 38 -38
t13 -53z" />
    <glyph glyph-name="aring" unicode="&#xe5;" 
d="M756 438h-35q-11 0 -73 1q-168 3 -242 -16t-116 -67t-42 -110q0 -60 54 -108t139 -48t149 35t97 71q69 73 69 181v61zM891 580v-580h-139v102q-154 -125 -336 -125q-141 0 -229 78q-87 77 -87 173t54 170q108 146 419 152q47 1 146 1h31v35q0 111 -31 159q-55 91 -208 91
t-253 -105l-72 94q125 131 344 131t316 -155q45 -76 45 -221zM442 1241q0 -39 25 -67t59 -27q34 0 61 28q25 29 25 67t-25 66q-26 28 -61 28q-36 0 -60 -28t-24 -67zM713 1239q1 -74 -55 -127t-120 -53q-64 1 -108 25q-94 54 -92 155q0 74 54 127t132 53t134 -53t55 -127z
" />
    <glyph glyph-name="ae" unicode="&#xe6;" 
d="M885 625q0 141 -70 192q-33 25 -74 25q-74 0 -125 -78q-39 -57 -38 -158v-35l307 13v41zM295 102q107 0 145 95q13 46 13 77v175l-45 -3q-106 -4 -148 -24t-76 -59q-32 -39 -32 -104t45 -111t98 -46zM20 238q0 205 189 292q76 35 197 39l47 2v54q0 129 -73 186
q-40 31 -89 31q-92 0 -156 -88l-72 90q90 113 238 112q74 0 134 -34t93 -93q36 59 94 93q115 68 236 5q99 -54 130 -188q13 -55 14 -90t2 -100v-78l-426 -16v-97q0 -86 24 -139t75 -88q52 -35 114 -35q94 0 149 76l72 -86q-90 -109 -234 -109q-78 0 -146 38t-110 104
q-74 -139 -231 -142q-111 0 -191 81q-80 80 -80 180z" />
    <glyph glyph-name="ccedilla" unicode="&#xe7;" 
d="M573 -174h-61l20 154q-182 16 -300 152t-118 341t133 343q132 138 339 138q111 0 202 -46t148 -128l-105 -121q-10 5 -10 23t-5 29q-4 11 -32 37q-85 81 -213 81q-127 0 -216 -95t-89 -255t92 -264t234 -104t244 114l86 -100q-121 -129 -299 -145l-11 -76l35 -2
q139 -11 139 -113q0 -59 -58 -105t-178 -46t-228 75l51 86q90 -73 192 -73t105 51q0 21 -23 35t-74 14z" />
    <glyph glyph-name="egrave" unicode="&#xe8;" 
d="M533 846q-99 0 -182 -64t-103 -221h514q12 115 -59 200t-170 85zM530 958q122 0 230 -75t141 -256q14 -88 6 -181h-665q11 -265 217 -331q49 -16 102 -17q147 0 242 105l82 -80q-121 -143 -328 -143t-332 126t-125 360q0 236 124 364t306 128zM498 1432l180 -302
l-103 -61l-206 277z" />
    <glyph glyph-name="eacute" unicode="&#xe9;" 
d="M533 846q-99 0 -182 -64t-103 -221h514q12 115 -59 200t-170 85zM530 958q122 0 230 -75t141 -256q14 -88 6 -181h-665q11 -265 217 -331q49 -16 102 -17q147 0 242 105l82 -80q-121 -143 -328 -143t-332 126t-125 360q0 236 124 364t306 128zM598 1432l129 -86
l-207 -277l-102 61z" />
    <glyph glyph-name="ecircumflex" unicode="&#xea;" 
d="M533 846q-99 0 -182 -64t-103 -221h514q12 115 -59 200t-170 85zM530 958q122 0 230 -75t141 -256q14 -88 6 -181h-665q11 -265 217 -331q49 -16 102 -17q147 0 242 105l82 -80q-121 -143 -328 -143t-332 126t-125 360q0 236 124 364t306 128zM274 1116l228 287h45
l225 -289l-94 -72l-160 211l-166 -209z" />
    <glyph glyph-name="edieresis" unicode="&#xeb;" 
d="M533 846q-99 0 -182 -64t-103 -221h514q12 115 -59 200t-170 85zM530 958q122 0 230 -75t141 -256q14 -88 6 -181h-665q11 -265 217 -331q49 -16 102 -17q147 0 242 105l82 -80q-121 -143 -328 -143t-332 126t-125 360q0 236 124 364t306 128zM774 1331q31 -31 31 -74
t-32 -73q-32 -29 -73 -29q-40 0 -70 30q-30 31 -30 73t30 73t72 31t72 -31zM440 1257q0 -29 -14 -53q-29 -50 -80 -49q-51 0 -82 30q-31 31 -31 73t31 73t66 31q34 0 58 -14t38 -38t14 -53z" />
    <glyph glyph-name="igrave" unicode="&#xec;" 
d="M217 936h375v-817h219v-119h-606v119h239v698h-227v119zM393 1432l180 -302l-102 -61l-207 277z" />
    <glyph glyph-name="iacute" unicode="&#xed;" 
d="M217 936h375v-817h219v-119h-606v119h239v698h-227v119zM580 1432l129 -86l-207 -277l-103 61z" />
    <glyph glyph-name="icircumflex" unicode="&#xee;" 
d="M217 936h375v-817h219v-119h-606v119h239v698h-227v119zM231 1116l228 287h45l225 -289l-94 -72l-160 211l-166 -209z" />
    <glyph glyph-name="idieresis" unicode="&#xef;" 
d="M217 936h375v-817h219v-119h-606v119h239v698h-227v119zM677 1362q43 0 73 -31t30 -73t-31 -73q-31 -30 -72 -30q-42 0 -73 30q-31 31 -31 73t31 73t73 31zM416 1257q0 -60 -52 -89q-24 -13 -52 -13t-52 13q-50 27 -51 79q0 53 30 84q29 31 65 31q68 0 97 -52
q15 -24 15 -53z" />
    <glyph glyph-name="eth" unicode="&#xf0;" 
d="M942 518q0 -219 -78 -350q-83 -130 -209 -171q-63 -22 -131 -22q-119 1 -219 61t-162 172q-61 112 -61 249t59 253t157 182t212 64q145 0 246 -106q-63 158 -176 280l-263 -73l-36 98l213 57q-96 80 -209 131l166 33q96 -53 178 -127l221 60l35 -90l-174 -52
q231 -262 231 -649zM240 475q0 -115 40 -201t104 -129t125 -43q109 0 197 83q87 83 87 290q0 100 -27 174t-70 111q-83 71 -186 71q-102 0 -186 -93t-84 -263z" />
    <glyph glyph-name="ntilde" unicode="&#xf1;" 
d="M139 0v936h152v-166q53 84 136 136t169 52t153 -44t101 -120t35 -227v-567h-146v563q0 153 -51 207q-49 59 -121 59t-134 -42t-97 -87q-45 -63 -45 -161v-539h-152zM408 1384q78 0 151 -77t114 -77t96 77q17 25 24 32l75 -82q-61 -73 -105 -109t-90 -36q-78 0 -149 78
t-115 78q-45 0 -73 -28t-70 -99l-92 65q113 178 234 178z" />
    <glyph glyph-name="ograve" unicode="&#xf2;" 
d="M514 831q-113 0 -195 -97t-81 -261q0 -111 41 -197q83 -174 243 -174q111 0 192 94t81 268q0 173 -84 270t-197 97zM942 467q0 -227 -123 -359t-301 -132t-307 138t-129 349t131 352t307 141t299 -131t123 -358zM498 1432l180 -302l-103 -61l-206 277z" />
    <glyph glyph-name="oacute" unicode="&#xf3;" 
d="M514 831q-113 0 -195 -97t-81 -261q0 -111 41 -197q83 -174 243 -174q111 0 192 94t81 268q0 173 -84 270t-197 97zM942 467q0 -227 -123 -359t-301 -132t-307 138t-129 349t131 352t307 141t299 -131t123 -358zM598 1432l129 -86l-207 -277l-102 61z" />
    <glyph glyph-name="ocircumflex" unicode="&#xf4;" 
d="M514 831q-113 0 -195 -97t-81 -261q0 -111 41 -197q83 -174 243 -174q111 0 192 94t81 268q0 173 -84 270t-197 97zM942 467q0 -227 -123 -359t-301 -132t-307 138t-129 349t131 352t307 141t299 -131t123 -358zM274 1116l228 287h45l225 -289l-94 -72l-160 211
l-166 -209z" />
    <glyph glyph-name="otilde" unicode="&#xf5;" 
d="M514 831q-113 0 -195 -97t-81 -261q0 -111 41 -197q83 -174 243 -174q111 0 192 94t81 268q0 173 -84 270t-197 97zM942 467q0 -227 -123 -359t-301 -132t-307 138t-129 349t131 352t307 141t299 -131t123 -358zM418 1384q80 0 152 -77t108 -77q35 0 52 19q16 17 24 25
t25 33t24 32l76 -82q-61 -73 -105 -109t-91 -36q-79 0 -149 78t-114 78q-45 0 -72 -28t-72 -99l-90 65q111 178 232 178z" />
    <glyph glyph-name="odieresis" unicode="&#xf6;" 
d="M514 831q-113 0 -195 -97t-81 -261q0 -111 41 -197q83 -174 243 -174q111 0 192 94t81 268q0 173 -84 270t-197 97zM942 467q0 -227 -123 -359t-301 -132t-307 138t-129 349t131 352t307 141t299 -131t123 -358zM771 1331q30 -31 30 -73t-30 -73q-30 -30 -73 -30
q-42 0 -72 30q-30 31 -30 73t30 73t72 31t73 -31zM436 1257q0 -29 -13 -53q-27 -50 -89 -49q-61 0 -90 50q-14 23 -14 59t30 67q31 31 66 31q36 0 60 -14t37 -38t13 -53z" />
    <glyph glyph-name="divide" unicode="&#xf7;" 
d="M614 325q0 -38 -26 -65t-65 -27q-37 0 -65 27t-28 59q0 60 47 87q20 12 52 12q33 0 59 -28t26 -65zM614 949q0 -33 -26 -59t-65 -26t-65 27t-26 65t27 65q27 28 59 28t51 -13q45 -27 45 -87zM145 713h738v-138h-738v138z" />
    <glyph glyph-name="oslash" unicode="&#xf8;" 
d="M522 102q111 0 192 94t81 261q0 166 -76 268l-322 -588q57 -35 125 -35zM942 478q0 -238 -123 -370t-297 -133q-100 0 -190 45l-82 -151l-107 55l90 166q-151 144 -151 364t131 361t313 141q84 0 160 -34l76 141l108 -59l-79 -150q151 -138 151 -376zM516 831
q-115 0 -197 -97q-81 -96 -81 -252t69 -257l316 580q-52 26 -107 26z" />
    <glyph glyph-name="ugrave" unicode="&#xf9;" 
d="M276 936v-522q0 -137 35 -203q57 -112 178 -115q66 0 124 40q57 40 93 104t35 180v516h150v-852q0 -51 10 -84h-156q-4 29 -4 72l2 71q-45 -77 -123 -121t-167 -44q-90 0 -169 50t-118 137t-39 249l2 522h147zM498 1432l180 -302l-103 -61l-206 277z" />
    <glyph glyph-name="uacute" unicode="&#xfa;" 
d="M276 936v-522q0 -137 35 -203q57 -112 178 -115q66 0 124 40q57 40 93 104t35 180v516h150v-852q0 -51 10 -84h-156q-4 29 -4 72l2 71q-45 -77 -123 -121t-167 -44q-90 0 -169 50t-118 137t-39 249l2 522h147zM598 1432l129 -86l-207 -277l-102 61z" />
    <glyph glyph-name="ucircumflex" unicode="&#xfb;" 
d="M276 936v-522q0 -137 35 -203q57 -112 178 -115q66 0 124 40q57 40 93 104t35 180v516h150v-852q0 -51 10 -84h-156q-4 29 -4 72l2 71q-45 -77 -123 -121t-167 -44q-90 0 -169 50t-118 137t-39 249l2 522h147zM274 1116l228 287h45l225 -289l-94 -72l-160 211l-166 -209z
" />
    <glyph glyph-name="udieresis" unicode="&#xfc;" 
d="M276 936v-522q0 -137 35 -203q57 -112 178 -115q66 0 124 40q57 40 93 104t35 180v516h150v-852q0 -51 10 -84h-156q-4 29 -4 72l2 71q-45 -77 -123 -121t-167 -44q-90 0 -169 50t-118 137t-39 249l2 522h147zM771 1331q30 -31 30 -73t-30 -73q-30 -30 -73 -30
q-42 0 -72 30q-30 31 -30 73t30 73t72 31t73 -31zM436 1257q0 -29 -13 -53q-27 -50 -89 -49q-61 0 -90 50q-14 23 -14 59t30 67q31 31 66 31q36 0 60 -14t37 -38t13 -53z" />
    <glyph glyph-name="yacute" unicode="&#xfd;" 
d="M268 891q0 -6 4 -17l275 -688l178 502q51 145 70 248h153q-33 -109 -92 -270l-293 -772q-37 -100 -80 -148q-90 -102 -223 -102t-215 80l78 131l16 -33q12 -25 45 -41t64 -17q121 0 196 170l29 70l-379 932h182q2 -10 -3 -24t-5 -21zM598 1432l129 -86l-207 -277l-102 61
z" />
    <glyph glyph-name="thorn" unicode="&#xfe;" 
d="M424 815q-95 -35 -127 -121q-25 -57 -25 -193q0 -202 27 -264q27 -63 85 -97t106 -34q129 0 199 63q69 63 87 136q42 169 -1 304t-128 185q-63 37 -122 37q-58 0 -101 -16zM558 956q161 0 268 -113q54 -57 88 -151t34 -216t-35 -220t-91 -158q-113 -123 -267 -123
q-86 0 -160 39t-121 109v-465h-151v1704h164l-15 -68v-501q47 75 126 119t160 44z" />
    <glyph glyph-name="ydieresis" unicode="&#xff;" 
d="M268 891q0 -6 4 -17l275 -688l178 502q51 145 70 248h153q-33 -109 -92 -270l-293 -772q-37 -100 -80 -148q-90 -102 -223 -102t-215 80l78 131l16 -33q12 -25 45 -41t64 -17q121 0 196 170l29 70l-379 932h182q2 -10 -3 -24t-5 -21zM771 1331q30 -31 30 -73t-30 -73
q-30 -30 -73 -30q-42 0 -72 30q-30 31 -30 73t30 73t72 31t73 -31zM436 1257q0 -29 -13 -53q-27 -50 -89 -49q-61 0 -90 50q-14 23 -14 59t30 67q31 31 66 31q36 0 60 -14t37 -38t13 -53z" />
    <glyph glyph-name="Abreve" unicode="&#x102;" 
d="M668 483l-181 488l-163 -488h344zM31 -2l450 1300h17l491 -1298h-147l-142 373h-405l-123 -375h-141zM492 1462q133 0 243 144l58 -86q-53 -74 -133 -119t-164 -45q-86 0 -167 42t-143 115l76 93q54 -85 136 -122q46 -22 94 -22z" />
    <glyph glyph-name="abreve" unicode="&#x103;" 
d="M756 438h-35q-11 0 -73 1q-168 3 -242 -16t-116 -67t-42 -110q0 -60 54 -108t139 -48t149 35t97 71q69 73 69 181v61zM891 580v-580h-139v102q-154 -125 -336 -125q-141 0 -229 78q-87 77 -87 173t54 170q108 146 419 152q47 1 146 1h31v35q0 111 -31 159q-55 91 -208 91
t-253 -105l-72 94q125 131 344 131t316 -155q45 -76 45 -221zM528 1180q133 0 244 143l59 -86q-55 -74 -134 -119t-165 -45q-175 0 -307 158l74 92q39 -61 99 -102t130 -41z" />
    <glyph glyph-name="Aogonek" unicode="&#x104;" 
d="M881 -266q61 0 114 47v-94q-55 -47 -137 -47t-124 36t-42 88q0 102 164 236h-14l-142 373h-405l-123 -375h-141l450 1300h17l491 -1298h2q-172 -154 -172 -209q1 -25 17 -41t45 -16zM668 483l-181 488l-163 -488h344z" />
    <glyph glyph-name="aogonek" unicode="&#x105;" 
d="M793 -266q44 0 100 47v-94q-55 -47 -137 -47t-124 36t-42 88q0 102 164 236h-2v102q-154 -125 -336 -125q-141 0 -229 78q-87 77 -87 173t54 170q108 146 419 152q47 1 146 1h31v35q0 111 -31 159q-55 91 -208 91t-253 -105l-72 94q125 131 344 131t316 -155
q45 -76 45 -221v-580h-2q-172 -154 -172 -210t76 -56zM756 438h-35q-11 0 -73 1q-168 3 -242 -16t-116 -67t-42 -110q0 -60 54 -108t139 -48t149 35t97 71q69 73 69 181v61z" />
    <glyph glyph-name="Cacute" unicode="&#x106;" 
d="M815 982v19q0 10 -6 23q-41 68 -107 108t-139 39q-141 0 -240 -142t-99 -388t102 -392t249 -147q76 0 147 42t114 114l106 -70q-60 -98 -160 -153t-190 -55t-156 19q-145 42 -249 196q-103 154 -103 436q0 147 32 264q57 208 186 299q129 92 267 92q174 0 297 -119
q59 -57 95 -133l-138 -67q-8 5 -8 15zM631 1620l82 -143l-346 -125l-50 86z" />
    <glyph glyph-name="cacute" unicode="&#x107;" 
d="M821 682q0 18 -5 29q-4 11 -32 37q-85 81 -213 81q-127 0 -216 -95t-89 -255t92 -264t234 -104t244 114l86 -100q-138 -147 -342 -147t-334 138q-130 140 -131 351q0 211 132 349t339 138q111 0 202 -46t148 -128l-105 -121q-10 5 -10 23zM598 1432l129 -86l-207 -277
l-102 61z" />
    <glyph glyph-name="Ccaron" unicode="&#x10c;" 
d="M815 982v19q0 10 -6 23q-41 68 -107 108t-139 39q-141 0 -240 -142t-99 -388t102 -392t249 -147q76 0 147 42t114 114l106 -70q-60 -98 -160 -153t-190 -55t-156 19q-145 42 -249 196q-103 154 -103 436q0 147 32 264q57 208 186 299q129 92 267 92q174 0 297 -119
q59 -57 95 -133l-138 -67q-8 5 -8 15zM846 1546l-268 -203h-43l-254 199l67 78l213 -143l227 139z" />
    <glyph glyph-name="ccaron" unicode="&#x10d;" 
d="M772 1348l-227 -287h-45l-226 289l95 71l159 -211l166 209zM821 682q0 18 -5 29q-4 11 -32 37q-85 81 -213 81q-127 0 -216 -95t-89 -255t92 -264t234 -104t244 114l86 -100q-138 -147 -342 -147t-334 138q-130 140 -131 351q0 211 132 349t339 138q111 0 202 -46
t148 -128l-105 -121q-10 5 -10 23z" />
    <glyph glyph-name="Dcaron" unicode="&#x10e;" 
d="M246 1155v-1044h131q76 0 130 11t107 46q184 125 184 455t-159 460q-53 45 -109 59t-131 13h-153zM111 1276h297q98 0 166 -13t130 -53q124 -81 181 -232q57 -150 57 -314q0 -467 -283 -615q-100 -51 -276 -51h-272v1278zM760 1546l-268 -203h-46l-251 199l67 78
l211 -143l229 139z" />
    <glyph glyph-name="dcaron" unicode="&#x10f;" 
d="M1042 1239q0 -131 -174 -309l-57 49q47 43 77 93t30 81t-42 59t-42 67q0 40 27 68q28 27 71 27q42 0 76 -38t34 -97zM384 840q-54 0 -98 -26q-87 -52 -124 -182q-18 -65 -19 -138q0 -154 67 -270t175 -115q57 0 109 34q50 35 88 99t38 188q0 125 -5 177q-12 129 -115 195
q-62 38 -116 38zM633 1362h139v-1276q0 -51 8 -86h-145q-8 27 -8 70v80q-45 -76 -118 -123t-157 -47q-150 0 -251 140t-101 358t111 350t260 133q85 0 155 -44t107 -118v563z" />
    <glyph glyph-name="Dcroat" unicode="&#x110;" 
d="M293 616v-499h123q135 0 219 57t133 178t49 275q0 258 -108 405q-39 55 -93 85t-90 34q-35 4 -88 4h-145v-420h215v-119h-215zM162 1276h284q146 0 223 -36q34 -15 66 -40q111 -82 165 -232t54 -342t-78 -357t-223 -232q-84 -39 -231 -39h-260v618h-101v119h101v541z" />
    <glyph glyph-name="dcroat" unicode="&#x111;" 
d="M885 1114v-1028q0 -51 10 -86h-147q-8 27 -9 70v80q-45 -78 -123 -124t-158 -46q-157 0 -261 117q-119 130 -119 380q0 127 36 224t95 151q117 108 262 109q96 -1 168 -45t106 -117v315h-155v109h155v139h158q0 -12 -10 -31q-10 -12 -8 -26v-82h90v-109h-90zM221 500
q0 -109 26 -190q27 -81 67 -122q78 -79 161 -79q84 0 149 48q65 47 87 119t22 197t-14 184q-27 94 -96 139q-70 44 -136 44t-110 -22q-156 -78 -156 -318z" />
    <glyph glyph-name="Eogonek" unicode="&#x118;" 
d="M782 -266q60 0 115 47v-94q-53 -47 -135 -47t-124 36t-42 88q0 102 162 236h-637v1278h782v-127h-647v-420h535v-131h-535v-473h641v-127h-2q-172 -154 -172 -209q0 -25 16 -41t43 -16z" />
    <glyph glyph-name="eogonek" unicode="&#x119;" 
d="M533 846q-99 0 -182 -64t-103 -221h514q12 115 -59 200t-170 85zM530 958q125 0 232 -75q106 -75 139 -258q14 -86 6 -179h-665q11 -265 217 -331q49 -16 102 -17q147 0 242 105l82 -80l-74 -90q-8 -8 -76 -94q-51 -71 -51 -112q0 -42 23 -65q52 -52 161 17l-2 -101
q-68 -36 -140 -36t-118 44q-47 44 -47 107q0 98 115 205q-70 -18 -141 -18q-188 0 -312 129q-123 129 -123 361t125 360t305 128z" />
    <glyph glyph-name="Ecaron" unicode="&#x11a;" 
d="M121 1278h782v-127h-647v-420h535v-131h-535v-473h641v-127h-776v1278zM813 1546l-268 -203h-45l-252 199l67 78l211 -143l230 139z" />
    <glyph glyph-name="ecaron" unicode="&#x11b;" 
d="M533 846q-99 0 -182 -64t-103 -221h514q12 115 -59 200t-170 85zM530 958q122 0 230 -75t141 -256q14 -88 6 -181h-665q11 -265 217 -331q49 -16 102 -17q147 0 242 105l82 -80q-121 -143 -328 -143t-332 126t-125 360q0 236 124 364t306 128zM772 1348l-227 -287h-45
l-226 289l95 71l159 -211l166 209z" />
    <glyph glyph-name="Gbreve" unicode="&#x11e;" 
d="M565 1163q-84 0 -161 -47q-189 -115 -189 -463q0 -297 123 -436q96 -111 230 -111t241 78v303h-231v125h364v-499q-180 -133 -375 -133q-152 0 -270 89q-225 165 -223 565q0 150 36 272q36 124 89 194t123 114q116 74 240 74t222 -57t154 -156l-100 -102q-12 8 -27 39
q-31 68 -97 110t-149 41zM528 1475q133 0 244 143l59 -86q-55 -74 -134 -119t-165 -45q-175 0 -307 158l74 94q39 -63 99 -104t130 -41z" />
    <glyph glyph-name="gbreve" unicode="&#x11f;" 
d="M213 -94q0 -80 85 -114t210 -34t207 45t82 121q0 53 -43 82t-104 31q-60 2 -122 0t-198 12q-117 -63 -117 -143zM123 635q1 137 105 235t240 97q136 0 226 -90q113 94 260 84l19 -121q-27 4 -55 4q-88 0 -162 -45q47 -72 47 -158q1 -131 -99 -226t-239 -96q-61 0 -119 23
q-66 -55 -66 -103t56 -65q43 -10 97 -10q53 0 113 1t122 -1t126 -29t101 -82t37 -113q0 -110 -95 -196q-47 -43 -135 -70t-200 -26q-225 0 -325 65q-99 66 -99 156q0 111 153 207q-75 41 -75 129t106 176q-66 43 -102 111q-37 68 -37 143zM258 658q0 -130 102 -192
q47 -28 118 -28t131 60q61 60 61 132q1 133 -103 192q-47 28 -117 28t-132 -60q-60 -62 -60 -132zM528 1180q133 0 244 143l59 -86q-55 -74 -134 -119t-165 -45q-175 0 -307 158l74 92q39 -61 99 -102t130 -41z" />
    <glyph glyph-name="Idotaccent" unicode="&#x130;" 
d="M180 1276h633v-121h-252v-1038h264v-119h-659v121h252v1036h-238v121zM381 1516q1 44 31 74t66 30t61 -13q53 -28 53 -81t-31 -84t-75 -31t-74 31t-31 74z" />
    <glyph glyph-name="dotlessi" unicode="&#x131;" 
d="M217 936h375v-817h219v-119h-606v119h239v698h-227v119z" />
    <glyph glyph-name="kgreenlandic" unicode="&#x138;" 
d="M135 936h168q2 -4 2 -9t-10 -19t-10 -25v-377l469 434q43 -10 108 -10h53l-393 -371l459 -561h-14l-176 -6l-383 477l-123 -115v-356h-150v938z" />
    <glyph glyph-name="Lacute" unicode="&#x139;" 
d="M135 1276h168q2 -14 -8 -32t-10 -38v-1083h614v-125h-764v1278zM631 1620l82 -143l-346 -125l-50 86z" />
    <glyph glyph-name="lacute" unicode="&#x13a;" 
d="M631 1710l82 -143l-346 -127l-50 86zM174 1362h414v-1243h274v-119h-700v119h276v1124h-264v119z" />
    <glyph glyph-name="Lcaron" unicode="&#x13d;" 
d="M135 1276h168q2 -14 -8 -32t-10 -38v-1083h614v-125h-764v1278zM866 1151q0 -133 -174 -309l-57 49q47 43 77 93t30 80t-43 58q-42 28 -42 69q0 39 28 67t63 28q34 0 60 -16q58 -36 58 -119z" />
    <glyph glyph-name="lcaron" unicode="&#x13e;" 
d="M137 1362h414v-1243h276v-119h-702v119h278v1124h-266v119zM973 1239q0 -131 -176 -309l-56 49q45 43 76 93t31 81t-39 55q-45 31 -45 71t28 68q28 27 62 27q68 -1 101 -64q18 -32 18 -71z" />
    <glyph glyph-name="Lslash" unicode="&#x141;" 
d="M150 1276h165q2 -2 2 -10t-9 -24t-9 -36v-534l340 110q35 12 51 21v-131l-391 -125v-424h614v-125h-763v500l-109 -35v125l109 37v651z" />
    <glyph glyph-name="lslash" unicode="&#x142;" 
d="M174 1362h414v-604l131 47q25 8 55 29v-150l-186 -63v-502h274v-119h-700v119h276v452l-162 -55v135l162 56v536h-264v119z" />
    <glyph glyph-name="Nacute" unicode="&#x143;" 
d="M102 0v1276h140l536 -946v948h152q2 -12 -6 -26t-9 -29v-1225h-112l-563 1006v-1004h-138zM631 1620l82 -143l-346 -125l-50 86z" />
    <glyph glyph-name="nacute" unicode="&#x144;" 
d="M139 0v936h152v-166q53 84 136 136t169 52t153 -44t101 -120t35 -227v-567h-146v563q0 153 -51 207q-49 59 -121 59t-134 -42t-97 -87q-45 -63 -45 -161v-539h-152zM598 1432l129 -86l-207 -277l-102 61z" />
    <glyph glyph-name="Ncaron" unicode="&#x147;" 
d="M102 0v1276h140l536 -946v948h152q2 -12 -6 -26t-9 -29v-1225h-112l-563 1006v-1004h-138zM813 1546l-268 -203h-45l-252 199l67 78l211 -143l230 139z" />
    <glyph glyph-name="ncaron" unicode="&#x148;" 
d="M139 0v936h152v-166q53 84 136 136t169 52t153 -44t101 -120t35 -227v-567h-146v563q0 153 -51 207q-49 59 -121 59t-134 -42t-97 -87q-45 -63 -45 -161v-539h-152zM772 1348l-227 -287h-45l-226 289l95 71l159 -211l166 209z" />
    <glyph glyph-name="Eng" unicode="&#x14a;" 
d="M104 0v1276h150v-166q55 86 144 137q88 51 186 51t177 -49t119 -135t40 -246v-510q0 -137 -36 -214q-36 -78 -111 -122t-167 -44t-176 51l72 127q6 -4 12 -12q26 -38 110 -38t128 91q23 49 22 151v516q0 130 -30 188q-61 120 -183 117q-75 0 -147 -46q-72 -47 -116 -109
t-44 -168v-846h-150z" />
    <glyph glyph-name="eng" unicode="&#x14b;" 
d="M139 0v936h152v-166q53 84 136 136t169 52t153 -44t101 -120t35 -227v-452q0 -170 -33 -249t-81 -128q-98 -100 -222 -99q-123 1 -211 70l70 137q10 -3 13 -14q7 -25 49 -40t71 -15q96 0 147 79t51 236v471q0 153 -51 207q-49 59 -121 59t-134 -42t-97 -87
q-45 -63 -45 -161v-539h-152z" />
    <glyph glyph-name="omacron" unicode="&#x14d;" 
d="M514 831q-113 0 -195 -97t-81 -261q0 -111 41 -197q83 -174 243 -174q111 0 192 94t81 268q0 173 -84 270t-197 97zM942 467q0 -227 -123 -359t-301 -132t-307 138t-129 349t131 352t307 141t299 -131t123 -358zM252 1272h520v-115h-520v115z" />
    <glyph glyph-name="Ohungarumlaut" unicode="&#x150;" 
d="M821 616q-1 378 -161 490q-70 50 -136 49q-121 0 -216 -103q-48 -54 -78 -156t-30 -242q1 -395 210 -506q123 -65 247 15q66 43 115 147t49 306zM965 639q0 -386 -179 -551q-118 -110 -259 -109t-253 91q-215 173 -215 571q0 333 158 512q121 137 303 137q109 0 208 -61
t168 -197t69 -393zM477 1659l96 -131l-299 -207l-65 84zM842 1659l94 -131l-297 -207l-66 84z" />
    <glyph glyph-name="ohungarumlaut" unicode="&#x151;" 
d="M514 831q-113 0 -195 -97t-81 -261q0 -111 41 -197q83 -174 243 -174q111 0 192 94t81 268q0 173 -84 270t-197 97zM942 467q0 -227 -123 -359t-301 -132t-307 138t-129 349t131 352t307 141t299 -131t123 -358zM756 1432l129 -86l-207 -277l-103 61zM438 1432l129 -86
l-207 -277l-102 61z" />
    <glyph glyph-name="OE" unicode="&#x152;" 
d="M150 642q0 -250 57 -390t160 -141q53 0 94 43t55 110v729q-60 181 -166 183q-106 0 -166 -182q-34 -102 -34 -352zM518 1278h473v-127h-346v-420h293v-131h-293v-473h342v-127h-471v63q-66 -77 -159 -77t-172 63q-165 132 -166 599t187 597q70 49 156 49t156 -75v59z" />
    <glyph glyph-name="oe" unicode="&#x153;" 
d="M242 801q-107 -77 -107 -330t101 -333q45 -36 92 -36t78 22t30 58q0 6 -13 80t-13 182q0 107 5 164t9 91t4 42q0 39 -29 65t-71 26t-86 -31zM883 569v19q0 127 -33 178q-44 76 -146 76t-143 -111q-24 -64 -22 -162h344zM330 954q123 0 192 -94q80 94 207 94q77 0 145 -44
q130 -84 130 -318v-139h-467q3 -179 29 -239q52 -119 178 -118q127 0 196 78l72 -88q-106 -111 -250 -111t-244 84q-92 -82 -203 -82q-165 -1 -253 181q-50 102 -50 310t52 304q98 182 266 182z" />
    <glyph glyph-name="Racute" unicode="&#x154;" 
d="M260 1141v-451h248q96 0 149 27t82 79t29 116t-31 118q-31 55 -87 83t-158 28h-232zM115 1276h377q160 0 244 -43t132 -126q47 -83 47 -195t-71 -213q-72 -99 -189 -130l295 -569h-159l-283 563h-248v-563h-145v1276zM631 1620l82 -143l-346 -125l-50 86z" />
    <glyph glyph-name="racute" unicode="&#x155;" 
d="M203 936h153l-4 -180q43 96 136 149t200 53q152 0 250 -102l-68 -141q-22 18 -34 47q-55 70 -156 69q-162 0 -262 -157q-55 -83 -64 -158q-2 -25 -2 -61v-457h-149v938zM598 1432l129 -86l-207 -277l-102 61z" />
    <glyph glyph-name="Rcaron" unicode="&#x158;" 
d="M260 1141v-451h248q96 0 149 27t82 79t29 116t-31 118q-31 55 -87 83t-158 28h-232zM115 1276h377q160 0 244 -43t132 -126q47 -83 47 -195t-71 -213q-72 -99 -189 -130l295 -569h-159l-283 563h-248v-563h-145v1276zM813 1546l-268 -203h-45l-252 199l67 78l211 -143
l230 139z" />
    <glyph glyph-name="rcaron" unicode="&#x159;" 
d="M203 936h153l-4 -180q43 96 136 149t200 53q152 0 250 -102l-68 -141q-22 18 -34 47q-55 70 -156 69q-162 0 -262 -157q-55 -83 -64 -158q-2 -25 -2 -61v-457h-149v938zM772 1348l-227 -287h-45l-226 289l95 71l159 -211l166 209z" />
    <glyph glyph-name="Sacute" unicode="&#x15a;" 
d="M515 1165q-95 0 -157 -55t-63 -131q0 -115 131 -191q30 -18 186 -84t222 -126q98 -92 98 -226t-95 -249q-47 -56 -133 -90t-198 -33q-248 0 -400 163l84 148q10 -7 10 -21t7 -22q47 -60 127 -100t194 -40t188 70q75 70 75 170t-109 168q-37 23 -184 83t-213 108
q-137 100 -137 241q0 140 110 238q111 98 279 98q215 0 354 -160l-90 -123q-10 3 -11 17t-6 20q-87 127 -269 127zM631 1620l82 -143l-346 -125l-50 86z" />
    <glyph glyph-name="sacute" unicode="&#x15b;" 
d="M328 712q0 -62 92 -106q37 -18 161 -54t183 -69q137 -78 137 -203q0 -124 -104 -212t-285 -88q-236 0 -395 147l84 147q10 -4 9 -19q-2 -31 92 -91t201 -61t177 41t70 112t-95 115q-39 18 -134 47t-117 38t-61 22q-37 13 -65 37q-28 25 -53 50q-49 49 -49 131
q0 109 100 186t261 76q215 0 348 -147l-86 -129q-10 2 -11 16q0 14 -4 21q-101 127 -270 127q-72 0 -129 -36t-57 -98zM598 1432l129 -86l-207 -277l-102 61z" />
    <glyph glyph-name="Scedilla" unicode="&#x15e;" 
d="M604 -224q0 50 -96 50h-62l21 154q-223 14 -361 163l84 148q10 -7 10 -21t7 -22q47 -60 127 -100t194 -40t188 70q75 70 75 170t-109 168q-37 23 -184 83t-213 108q-137 100 -137 241q0 140 110 238q111 98 279 98q215 0 354 -160l-90 -123q-10 3 -11 17t-6 20
q-87 127 -269 127q-95 0 -157 -55t-63 -131q0 -115 131 -191q30 -18 186 -84t222 -126q98 -92 98 -243t-125 -259q-100 -86 -250 -96l-8 -76l33 -2q139 -10 139 -113q0 -83 -98 -128q-51 -24 -123 -23q-135 0 -244 75l51 86q89 -73 193 -73t104 50z" />
    <glyph glyph-name="scedilla" unicode="&#x15f;" 
d="M520 -174h-61l20 154q-215 10 -362 147l84 147q10 -4 9 -19q-2 -31 92 -91t201 -61t177 41t70 112t-95 115q-39 18 -134 47t-117 38t-61 22q-37 13 -65 37q-28 25 -53 50q-49 49 -49 131q0 109 100 186t261 76q215 0 348 -147l-86 -129q-10 2 -11 16q0 14 -4 21
q-101 127 -270 127q-72 0 -129 -36t-57 -98t92 -106q37 -18 161 -54t183 -69q137 -78 137 -218t-150 -228q-77 -45 -182 -55l-8 -78l33 -2q139 -10 139 -113q0 -84 -98 -128q-51 -24 -123 -23q-135 0 -244 75l51 86q89 -73 193 -73t104 50t-96 50z" />
    <glyph glyph-name="Scaron" unicode="&#x160;" 
d="M515 1165q-95 0 -157 -55t-63 -131q0 -115 131 -191q30 -18 186 -84t222 -126q98 -92 98 -226t-95 -249q-47 -56 -133 -90t-198 -33q-248 0 -400 163l84 148q10 -7 10 -21t7 -22q47 -60 127 -100t194 -40t188 70q75 70 75 170t-109 168q-37 23 -184 83t-213 108
q-137 100 -137 241q0 140 110 238q111 98 279 98q215 0 354 -160l-90 -123q-10 3 -11 17t-6 20q-87 127 -269 127zM823 1546l-268 -203h-45l-252 199l68 78l211 -143l229 139z" />
    <glyph glyph-name="scaron" unicode="&#x161;" 
d="M328 712q0 -62 92 -106q37 -18 161 -54t183 -69q137 -78 137 -203q0 -124 -104 -212t-285 -88q-236 0 -395 147l84 147q10 -4 9 -19q-2 -31 92 -91t201 -61t177 41t70 112t-95 115q-39 18 -134 47t-117 38t-61 22q-37 13 -65 37q-28 25 -53 50q-49 49 -49 131
q0 109 100 186t261 76q215 0 348 -147l-86 -129q-10 2 -11 16q0 14 -4 21q-101 127 -270 127q-72 0 -129 -36t-57 -98zM772 1348l-227 -287h-45l-226 289l95 71l159 -211l166 209z" />
    <glyph glyph-name="Tcedilla" unicode="&#x162;" 
d="M63 1278h885v-129h-377v-1151h-24l-12 -94l34 -2q138 -11 140 -113q0 -83 -99 -128q-51 -24 -123 -23q-135 0 -243 75l51 86q89 -73 193 -73t104 51q0 21 -23 35t-73 14h-62l23 172h-31v1151h-363v129z" />
    <glyph glyph-name="tcedilla" unicode="&#x163;" 
d="M608 -174h-59l20 160q-167 18 -210 180q-17 64 -17 237t20 412h-219l2 121h224l16 250l162 26q3 -18 -4 -32q-6 -14 -8 -23l-25 -221h307v-121h-307q-18 -181 -18 -341t8 -222t52 -98t103 -35q94 0 209 84l45 -117q-124 -89 -252 -100l-8 -82l33 -2q139 -10 139 -113
q0 -59 -58 -105t-178 -46t-229 75l52 86q90 -73 192 -73t105 51q0 49 -97 49z" />
    <glyph glyph-name="Tcaron" unicode="&#x164;" 
d="M63 1278h885v-129h-377v-1151h-145v1151h-363v129zM813 1546l-268 -203h-45l-252 199l67 78l211 -143l230 139z" />
    <glyph glyph-name="tcaron" unicode="&#x165;" 
d="M764 936v-121h-307q-19 -181 -19 -341t8 -222t52 -98t104 -35q94 0 209 84l47 -117q-142 -104 -292 -104t-222 100q-49 69 -52 166q-1 32 -1 180t18 387h-219l2 121h223l17 250l162 26q3 -18 -4 -32t-9 -23l-22 -221h305zM989 1309q0 -131 -174 -308l-57 50q47 43 78 92
q30 49 30 80t-42 59t-42 67q0 41 27 69t62 28q70 0 102 -65q16 -31 16 -72z" />
    <glyph glyph-name="Uring" unicode="&#x16e;" 
d="M102 1276h162q2 -4 2 -11t-11 -23t-11 -32v-772q0 -124 32 -192t98 -108q68 -40 144 -40t142 39t100 109q33 70 33 198v832h137v-830q0 -86 -9 -148t-42 -122q-53 -96 -151 -147t-213 -51q-116 0 -213 50q-97 52 -150 148q-31 58 -40 118t-10 146v836zM434 1449
q0 -40 26 -67q26 -26 60 -26t60 26q24 26 24 67q0 40 -24 67q-25 26 -60 26q-34 0 -60 -26t-26 -67zM705 1447q-1 -75 -55 -127t-118 -52t-108 24q-43 24 -69 65q-25 41 -25 103t55 115t133 53t132 -53t55 -128z" />
    <glyph glyph-name="uring" unicode="&#x16f;" 
d="M276 936v-522q0 -137 35 -203q57 -112 178 -115q66 0 124 40q57 40 93 104t35 180v516h150v-852q0 -51 10 -84h-156q-4 29 -4 72l2 71q-45 -77 -123 -121t-167 -44q-90 0 -169 50t-118 137t-39 249l2 522h147zM442 1241q0 -39 25 -67t59 -27q34 0 61 28q25 29 25 67
t-25 66q-26 28 -61 28q-36 0 -60 -28t-24 -67zM713 1239q1 -74 -55 -127t-120 -53q-64 1 -108 25q-94 54 -92 155q0 74 54 127t132 53t134 -53t55 -127z" />
    <glyph glyph-name="Uhungarumlaut" unicode="&#x170;" 
d="M102 1276h162q2 -4 2 -11t-11 -23t-11 -32v-772q0 -124 32 -192t98 -108q68 -40 144 -40t142 39t100 109q33 70 33 198v832h137v-830q0 -86 -9 -148t-42 -122q-53 -96 -151 -147t-213 -51q-116 0 -213 50q-97 52 -150 148q-31 58 -40 118t-10 146v836zM477 1659l96 -131
l-299 -207l-65 84zM842 1659l94 -131l-297 -207l-66 84z" />
    <glyph glyph-name="uhungarumlaut" unicode="&#x171;" 
d="M276 936v-522q0 -137 35 -203q57 -112 178 -115q66 0 124 40q57 40 93 104t35 180v516h150v-852q0 -51 10 -84h-156q-4 29 -4 72l2 71q-45 -77 -123 -121t-167 -44q-90 0 -169 50t-118 137t-39 249l2 522h147zM756 1432l129 -86l-207 -277l-103 61zM438 1432l129 -86
l-207 -277l-102 61z" />
    <glyph glyph-name="Ydieresis" unicode="&#x178;" 
d="M606 0h-155v504l-394 774h164l314 -621l282 619h152l-363 -772v-504zM793 1511q0 -43 -31 -73t-73 -29q-42 0 -72 30q-29 31 -29 73t29 73q30 31 72 31t73 -31t31 -74zM428 1504q0 -36 -31 -66t-65 -29q-34 0 -60 13q-51 27 -51 79q0 53 30 84t66 31t59 -14
q52 -30 52 -98z" />
    <glyph glyph-name="Zacute" unicode="&#x179;" 
d="M127 1276h788l-2 -100l-630 -1051h602q14 0 31 7t32 5v-139h-846v100l643 1049h-618v129zM631 1620l82 -143l-346 -125l-50 86z" />
    <glyph glyph-name="zacute" unicode="&#x17a;" 
d="M145 936h727v-100l-569 -711h555q14 0 32 7t32 5v-139h-820v100l580 709h-537v129zM598 1432l129 -86l-207 -277l-102 61z" />
    <glyph glyph-name="Zdotaccent" unicode="&#x17b;" 
d="M127 1276h788l-2 -100l-630 -1051h602q14 0 31 7t32 5v-139h-846v100l643 1049h-618v129zM521 1604q44 0 75 -31t31 -75t-31 -75t-67 -31q-37 0 -61 15q-52 31 -52 83t30 83q31 31 75 31z" />
    <glyph glyph-name="zdot" unicode="&#x17c;" 
d="M521 1343q44 -1 75 -31t31 -74t-31 -75t-67 -31q-37 0 -61 15q-52 31 -52 83t30 83q31 30 75 30zM145 936h727v-100l-569 -711h555q14 0 32 7t32 5v-139h-820v100l580 709h-537v129z" />
    <glyph glyph-name="Zcaron" unicode="&#x17d;" 
d="M127 1276h788l-2 -100l-630 -1051h602q14 0 31 7t32 5v-139h-846v100l643 1049h-618v129zM813 1546l-268 -203h-45l-252 199l67 78l211 -143l230 139z" />
    <glyph glyph-name="zcaron" unicode="&#x17e;" 
d="M145 936h727v-100l-569 -711h555q14 0 32 7t32 5v-139h-820v100l580 709h-537v129zM772 1348l-227 -287h-45l-226 289l95 71l159 -211l166 209z" />
    <glyph glyph-name="florin" unicode="&#x192;" 
d="M915 1135q-22 0 -22 41q-16 34 -53 60t-84 26q-96 0 -144 -103q-25 -53 -37 -207l-12 -168h252v-116h-262l-49 -619q-14 -173 -54 -241t-80 -102q-74 -64 -170 -64q-95 0 -163 71l84 131q9 -4 27 -34t76 -31q58 0 95 74q37 66 48 202l45 613h-248v116h256l14 189
q12 156 51 233q61 125 189 161q39 11 80 11q139 1 229 -108z" />
    <glyph glyph-name="dotlessj" unicode="&#x237;" 
d="M258 936h498v-870q0 -150 -45 -238t-133 -136t-193 -48q-180 0 -287 131l97 127q6 -6 10 -20q14 -49 98 -91q84 -43 181 -1q124 51 122 247v778h-348v121z" />
    <glyph glyph-name="circumflex" unicode="&#x2c6;" 
d="M274 1116l228 287h45l225 -289l-94 -72l-160 211l-166 -209z" />
    <glyph glyph-name="caron" unicode="&#x2c7;" 
d="M772 1348l-227 -287h-45l-226 289l95 71l159 -211l166 209z" />
    <glyph glyph-name="uni02C9" unicode="&#x2c9;" 
d="M252 1272h520v-115h-520v115z" />
    <glyph glyph-name="uni02CB" unicode="&#x2cb;" 
d="M498 1432l180 -302l-103 -61l-206 277z" />
    <glyph glyph-name="breve" unicode="&#x2d8;" 
d="M512 1180q131 0 244 143l57 -86q-55 -74 -134 -119t-165 -45t-166 42t-141 116l74 92q33 -53 93 -98q59 -45 138 -45z" />
    <glyph glyph-name="dotaccent" unicode="&#x2d9;" 
d="M521 1343q44 -1 75 -31t31 -74t-31 -75t-67 -31q-37 0 -61 15q-52 31 -52 83t30 83q31 30 75 30z" />
    <glyph glyph-name="ring" unicode="&#x2da;" 
d="M442 1241q0 -39 25 -67t59 -27q34 0 61 28q25 29 25 67t-25 66q-26 28 -61 28q-36 0 -60 -28t-24 -67zM713 1239q1 -74 -55 -127t-120 -53q-64 1 -108 25q-94 54 -92 155q0 74 54 127t132 53t134 -53t55 -127z" />
    <glyph glyph-name="ogonek" unicode="&#x2db;" 
d="M768 -266q43 0 100 47v-94q-55 -47 -137 -47t-124 36t-42 88q0 103 164 236h135q-172 -154 -172 -210t76 -56z" />
    <glyph glyph-name="tilde" unicode="&#x2dc;" 
d="M418 1384q80 0 152 -77t108 -77q35 0 52 19q16 17 24 25t25 33t24 32l76 -82q-61 -73 -105 -109t-91 -36q-79 0 -149 78t-114 78q-45 0 -72 -28t-72 -99l-90 65q111 178 232 178z" />
    <glyph glyph-name="hungarumlaut" unicode="&#x2dd;" 
d="M756 1432l129 -86l-207 -277l-103 61zM438 1432l129 -86l-207 -277l-102 61z" />
    <glyph glyph-name="quoteleft" unicode="&#x2018;" 
d="M373 922q0 164 217 385l72 -64q-58 -51 -96 -113t-38 -101q0 -38 47 -71q57 -37 57 -87t-33 -85q-34 -34 -87 -34t-96 47t-43 123z" />
    <glyph glyph-name="quoteright" unicode="&#x2019;" 
d="M627 1137q0 -164 -219 -385l-70 61q57 53 95 115t38 100q0 39 -52 74t-52 85t33 85q34 35 87 35t97 -47t43 -123z" />
    <glyph glyph-name="quotesinglbase" unicode="&#x201a;" 
d="M627 41q0 -164 -219 -385l-70 61q57 53 95 115t38 100q0 39 -52 74t-52 85t33 85q34 35 87 35t97 -47t43 -123z" />
    <glyph glyph-name="quotedblleft" unicode="&#x201c;" 
d="M162 922q0 164 217 385l70 -64q-57 -51 -95 -113t-39 -101q-1 -38 53 -73t54 -85t-35 -85q-35 -34 -88 -34t-95 47t-42 123zM586 922q0 164 217 385l69 -64q-57 -51 -95 -113t-38 -101q0 -38 53 -73q54 -35 54 -85t-35 -85q-35 -34 -88 -34t-95 47t-42 123z" />
    <glyph glyph-name="quotedblright" unicode="&#x201d;" 
d="M838 1137q0 -164 -217 -385l-72 61q59 53 96 115t37 100q0 39 -52 74t-52 85t33 85q34 35 88 35q55 0 97 -47t42 -123zM414 1137q0 -164 -217 -385l-72 61q59 53 96 115t37 100q0 39 -52 74t-52 85t33 85q34 35 88 35q55 0 97 -47t42 -123z" />
    <glyph glyph-name="quotedblbase" unicode="&#x201e;" 
d="M414 41q0 -164 -217 -385l-72 61q59 53 96 115t37 100q0 39 -52 74t-52 85t33 85q34 35 88 35q55 0 97 -47t42 -123zM838 41q0 -164 -217 -385l-72 61q59 53 96 115t37 100q0 39 -52 74t-52 85t33 85q34 35 88 35q55 0 97 -47t42 -123z" />
    <glyph glyph-name="dagger" unicode="&#x2020;" 
d="M444 1335h138v-399h340v-123h-340v-1122h-138v1122h-344v123h344v399z" />
    <glyph glyph-name="daggerdbl" unicode="&#x2021;" 
d="M444 1335h138v-399h340v-123h-340v-565h340v-123h-340v-434h-138v434h-344v123h344v565h-344v123h344v399z" />
    <glyph glyph-name="bullet" unicode="&#x2022;" 
d="M698 607q0 -71 -51 -121t-123 -50t-123 50t-51 108q0 107 87 161q39 23 99 23t111 -50t51 -121z" />
    <glyph glyph-name="ellipsis" unicode="&#x2026;" 
d="M610 94q0 -49 -36 -83t-78 -34q-42 -1 -70 15q-60 34 -59 93q0 58 35 93q36 35 86 35t86 -35t36 -84zM256 94q0 -49 -35 -83t-86 -34t-86 34t-35 83t35 84t86 35t86 -35t35 -84zM963 94q0 -49 -35 -83t-85 -34t-86 34t-36 83t36 84t86 35t85 -35t35 -84z" />
    <glyph glyph-name="guilsinglleft" unicode="&#x2039;" 
d="M297 518l311 301l80 -84l-248 -241l262 -287l-81 -82l-324 346v47z" />
    <glyph glyph-name="guilsinglright" unicode="&#x203a;" 
d="M702 518v-47l-323 -346l-82 82l262 287l-248 241l80 84z" />
    <glyph glyph-name="fraction" unicode="&#x2044;" 
d="M156 -33l641 1395l98 -55l-643 -1393z" />
    <glyph glyph-name="uni2074" unicode="&#x2074;" 
d="M584 811v303l-242 -303h242zM698 1313v-502h129v-96h-129v-199h-116v201h-373v71l409 525h80z" />
    <glyph glyph-name="euro" unicode="&#x20ac;" 
d="M303 631v-66h422l-47 -119h-363q23 -125 84 -208q100 -137 271 -138q127 0 219 84l59 -102q-121 -104 -286 -105q-120 -1 -203 45q-82 46 -131 96q-112 115 -142 328h-118l26 119h82v33q0 70 4 131h-112l26 119h105q25 117 73 201q72 127 181 182t221 55q167 1 276 -110
l-51 -140q-8 5 -10 21t-6 20q-41 41 -94 67t-140 25q-87 0 -189 -75t-134 -246h505l-45 -119h-479q-4 -55 -4 -98z" />
    <glyph glyph-name="trademark" unicode="&#x2122;" 
d="M989 1300v-645h-86v441l-123 -222l-32 3l-113 219v-441h-86v645h72l147 -296l154 296h67zM489 1300v-81h-184v-564h-92v564h-176v81h452z" />
    <glyph glyph-name="uparrow" unicode="&#x2191;" 
d="M584 -70h-138v1121l-237 -295l-88 71l383 484h45l354 -488l-102 -67l-217 293v-1119z" />
    <glyph glyph-name="downarrow" unicode="&#x2193;" 
d="M440 1311h135v-1118l240 294l88 -71l-383 -486h-45l-354 490l102 67l217 -294v1118z" />
    <glyph glyph-name="minus" unicode="&#x2212;" 
d="M92 702h842v-124h-842v124z" />
    <glyph glyph-name="visiblespace" unicode="&#x2423;" 
d="M98 143h97v-186h632v186h99v-278h-828v278z" />
    <glyph glyph-name="NameMe.1" horiz-adv-x="1005" 
 />
    <glyph glyph-name="NameMe.2" horiz-adv-x="989" 
 />
    <glyph glyph-name="NameMe.3" horiz-adv-x="970" 
 />
    <glyph glyph-name="NameMe.4" horiz-adv-x="954" 
 />
    <glyph glyph-name="NameMe.5" horiz-adv-x="935" 
 />
    <glyph glyph-name="NameMe.6" horiz-adv-x="917" 
 />
    <glyph glyph-name="NameMe.7" horiz-adv-x="901" 
 />
    <glyph glyph-name="NameMe.8" horiz-adv-x="882" 
 />
    <glyph glyph-name="NameMe.9" horiz-adv-x="864" 
 />
    <glyph glyph-name="NameMe.10" horiz-adv-x="847" 
 />
    <glyph glyph-name="NameMe.11" horiz-adv-x="829" 
 />
    <glyph glyph-name="NameMe.12" horiz-adv-x="811" 
 />
    <glyph glyph-name="NameMe.13" horiz-adv-x="794" 
 />
    <glyph glyph-name="NameMe.14" horiz-adv-x="776" 
 />
    <glyph glyph-name="NameMe.15" horiz-adv-x="759" 
 />
    <glyph glyph-name="NameMe.16" horiz-adv-x="741" 
 />
    <glyph glyph-name="NameMe.17" horiz-adv-x="722" 
 />
    <glyph glyph-name="NameMe.18" horiz-adv-x="706" 
 />
    <glyph glyph-name="NameMe.19" horiz-adv-x="688" 
 />
    <glyph glyph-name="NameMe.20" horiz-adv-x="669" 
 />
    <glyph glyph-name="NameMe.21" horiz-adv-x="653" 
 />
    <glyph glyph-name="NameMe.22" horiz-adv-x="634" 
 />
    <glyph glyph-name="NameMe.23" horiz-adv-x="618" 
 />
    <glyph glyph-name="NameMe.24" horiz-adv-x="600" 
 />
    <glyph glyph-name="NameMe.25" horiz-adv-x="581" 
 />
    <glyph glyph-name="NameMe.26" horiz-adv-x="565" 
 />
    <glyph glyph-name="NameMe.27" horiz-adv-x="546" 
 />
    <glyph glyph-name="NameMe.28" horiz-adv-x="528" 
 />
    <glyph glyph-name="NameMe.29" horiz-adv-x="512" 
 />
    <glyph glyph-name="NameMe.30" horiz-adv-x="493" 
 />
    <glyph glyph-name="NameMe.31" horiz-adv-x="477" 
 />
    <glyph glyph-name="NameMe.127" horiz-adv-x="458" 
 />
    <glyph glyph-name="NameMe.128" horiz-adv-x="440" 
 />
    <glyph glyph-name="NameMe.129" horiz-adv-x="423" 
 />
    <glyph glyph-name="NameMe.130" horiz-adv-x="405" 
 />
    <glyph glyph-name="NameMe.131" horiz-adv-x="387" 
 />
    <glyph glyph-name="NameMe.132" horiz-adv-x="370" 
 />
    <glyph glyph-name="NameMe.133" horiz-adv-x="352" 
 />
    <glyph glyph-name="NameMe.134" horiz-adv-x="333" 
 />
    <glyph glyph-name="NameMe.135" horiz-adv-x="317" 
 />
    <glyph glyph-name="NameMe.136" horiz-adv-x="299" 
 />
    <glyph glyph-name="NameMe.137" horiz-adv-x="282" 
 />
    <glyph glyph-name="NameMe.138" horiz-adv-x="264" 
 />
    <glyph glyph-name="NameMe.139" horiz-adv-x="245" 
 />
    <glyph glyph-name="NameMe.140" horiz-adv-x="229" 
 />
    <glyph glyph-name="NameMe.141" horiz-adv-x="210" 
 />
    <glyph glyph-name="NameMe.142" horiz-adv-x="192" 
 />
    <glyph glyph-name="NameMe.143" horiz-adv-x="176" 
 />
    <glyph glyph-name="NameMe.144" horiz-adv-x="157" 
 />
    <glyph glyph-name="NameMe.145" horiz-adv-x="141" 
 />
    <glyph glyph-name="NameMe.146" horiz-adv-x="122" 
 />
    <glyph glyph-name="NameMe.147" horiz-adv-x="104" 
 />
    <glyph glyph-name="NameMe.148" horiz-adv-x="88" 
 />
    <glyph glyph-name="NameMe.149" horiz-adv-x="69" 
 />
    <glyph glyph-name="NameMe.150" horiz-adv-x="51" 
 />
    <glyph glyph-name="NameMe.151" horiz-adv-x="34" 
 />
    <glyph glyph-name="NameMe.152" horiz-adv-x="16" 
 />
    <glyph glyph-name="NameMe.153" horiz-adv-x="0" 
 />
    <glyph glyph-name="NameMe.154" horiz-adv-x="0" 
 />
    <glyph glyph-name="NameMe.155" horiz-adv-x="0" 
 />
    <glyph glyph-name="NameMe.156" horiz-adv-x="0" 
 />
    <glyph glyph-name="NameMe.157" horiz-adv-x="0" 
 />
    <glyph glyph-name="NameMe.158" horiz-adv-x="0" 
 />
    <glyph glyph-name="NameMe.159" horiz-adv-x="0" 
 />
    <glyph glyph-name="circumflex.cap" 
d="M233 1165l269 203h45l252 -201l-68 -77l-211 145l-229 -139z" />
    <glyph glyph-name="caron.cap" 
d="M799 1294l-269 -204h-45l-252 200l68 78l211 -145l229 139z" />
    <glyph glyph-name="grave.cap" 
d="M424 1376l313 -182l-47 -86l-348 125z" />
    <glyph glyph-name="acute.cap" 
d="M666 1376l82 -143l-347 -125l-47 86z" />
    <glyph glyph-name="NameMe.329" horiz-adv-x="0" 
 />
    <glyph glyph-name="r.serif" 
d="M133 936h281l-6 -180q69 126 183 175q60 26 128 25q139 0 242 -100l-70 -141q-13 13 -33 43q-55 72 -149 71q-127 0 -228 -139q-61 -91 -70 -161q-3 -24 -3 -58v-360h196v-113h-475v113h133v706h-129v119z" />
    <glyph glyph-name="hungarumlaut.cap" 
d="M477 1659l96 -131l-299 -207l-65 84zM842 1659l94 -131l-297 -207l-66 84z" />
    <glyph glyph-name="zero.noslash" 
d="M264 641q0 -223 66 -378t188 -154q104 -1 175 129t71 368q0 66 -9 140q-50 413 -240 413q-116 0 -177 -133q-74 -162 -74 -385zM129 611q1 297 107 485t273 188t277 -178t111 -471q0 -293 -111 -475q-110 -182 -274 -182t-274 167q-110 168 -109 466z" />
  </font>
</defs>
</svg>
